<?xml version="1.0" encoding="UTF-8"?>
        <svg 
          width="412" 
          height="134" 
          viewBox="0 0 412 134" 
          xmlns="http://www.w3.org/2000/svg" 
          role="img" 
          aria-label="DenverCoder1/readme-typing-svg"
        >
          <title>DenverCoder1/readme-typing-svg</title>
          <style>:root {
          --canvas: #ffffff; --border: #d1d9e0; 
          --text: #59636e; --danger: #9a6700; --link: #0969da;
        }@media (prefers-color-scheme: dark) { :root {
          --canvas: #212830; --border: #3d444d; 
          --text: #9198a1; --danger: #c69026; --link: #478be6;
        } }text { 
              font-family: -apple-system, 
              BlinkMacSystemFont, 
              "Segoe UI", 
              "Noto Sans", 
              Helvetica, 
              Arial, 
              sans-serif; 
            } 
          </style>
          <defs><clipPath id="clip"><rect 
            x="0" 
            y="0" 
            width="412" 
            height="134" 
            rx="6" 
            ry="6"
          /></clipPath></defs>
          <g clip-path="url(#clip)">
            <rect 
              x="0" 
              y="0" 
              width="412" 
              height="134" 
              fill="var(--canvas)" 
              stroke="var(--border)"
            />
            <g transform="translate(16.00,17.97) scale(0.9412)"><path d="M2 2.5A2.5 2.5 0 0 1 4.5 0h8.75a.75.75 0 0 1 .75.75v12.5a.75.75 0 0 1-.75.75h-2.5a.75.75 0 0 1 0-1.5h1.75v-2h-8a1 1 0 0 0-.714 1.7.75.75 0 1 1-1.072 1.05A2.495 2.495 0 0 1 2 11.5Zm10.5-1h-8a1 1 0 0 0-1 1v6.708A2.486 2.486 0 0 1 4.5 9h8ZM5 12.25a.25.25 0 0 1 .25-.25h3.5a.25.25 0 0 1 .25.25v3.25a.25.25 0 0 1-.4.2l-1.45-1.087a.249.249 0 0 0-.3 0L5.4 15.7a.25.25 0 0 1-.4-.2Z" fill="var(--text)" stroke="none" stroke-width="0" fill-rule="evenodd"/></g>
        <a href="https://github.com/DenverCoder1/readme-typing-svg/" target="_blank"><text x="33" y="29.118000000000002" font-size="13.118" fill="var(--link)"><tspan font-weight="500">DenverCoder1/</tspan><tspan font-weight="700">readme-typing-svg</tspan></text></a><switch><g systemLanguage="ro"><g transform="translate(247.21,16.32)"><rect width="40" height="16" rx="8" ry="8" fill="transparent" stroke="var(--border)"/><text x="8.0" y="12" font-size="9.182599999999999" fill="var(--text)" textLength="24" lengthAdjust="spacingAndGlyphs">Public</text></g></g><g systemLanguage="en"><g transform="translate(247.21,16.32)"><rect width="40" height="16" rx="8" ry="8" fill="transparent" stroke="var(--border)"/><text x="8.0" y="12" font-size="9.182599999999999" fill="var(--text)" textLength="24" lengthAdjust="spacingAndGlyphs">Public</text></g></g><g systemLanguage="es"><g transform="translate(247.21,16.32)"><rect width="40" height="16" rx="8" ry="8" fill="transparent" stroke="var(--border)"/><text x="8.0" y="12" font-size="9.182599999999999" fill="var(--text)" textLength="24" lengthAdjust="spacingAndGlyphs">Público</text></g></g><g systemLanguage="fr"><g transform="translate(247.21,16.32)"><rect width="40" height="16" rx="8" ry="8" fill="transparent" stroke="var(--border)"/><text x="8.0" y="12" font-size="9.182599999999999" fill="var(--text)" textLength="24" lengthAdjust="spacingAndGlyphs">Publique</text></g></g><g systemLanguage="de"><g transform="translate(247.21,16.32)"><rect width="40" height="16" rx="8" ry="8" fill="transparent" stroke="var(--border)"/><text x="8.0" y="12" font-size="9.182599999999999" fill="var(--text)" textLength="24" lengthAdjust="spacingAndGlyphs">Öffentlich</text></g></g><g systemLanguage="pt"><g transform="translate(247.21,16.32)"><rect width="40" height="16" rx="8" ry="8" fill="transparent" stroke="var(--border)"/><text x="8.0" y="12" font-size="9.182599999999999" fill="var(--text)" textLength="24" lengthAdjust="spacingAndGlyphs">Público</text></g></g><g systemLanguage="ru"><g transform="translate(247.21,16.32)"><rect width="40" height="16" rx="8" ry="8" fill="transparent" stroke="var(--border)"/><text x="8.0" y="12" font-size="9.182599999999999" fill="var(--text)" textLength="24" lengthAdjust="spacingAndGlyphs">Общественный</text></g></g><g systemLanguage="zh-CN"><g transform="translate(247.21,16.32)"><rect width="40" height="16" rx="8" ry="8" fill="transparent" stroke="var(--border)"/><text x="8.0" y="12" font-size="9.182599999999999" fill="var(--text)" textLength="24" lengthAdjust="spacingAndGlyphs">民众</text></g></g><g systemLanguage="zh-TW"><g transform="translate(247.21,16.32)"><rect width="40" height="16" rx="8" ry="8" fill="transparent" stroke="var(--border)"/><text x="8.0" y="12" font-size="9.182599999999999" fill="var(--text)" textLength="24" lengthAdjust="spacingAndGlyphs">民眾</text></g></g><g systemLanguage="ja"><g transform="translate(247.21,16.32)"><rect width="40" height="16" rx="8" ry="8" fill="transparent" stroke="var(--border)"/><text x="8.0" y="12" font-size="9.182599999999999" fill="var(--text)" textLength="24" lengthAdjust="spacingAndGlyphs">公共</text></g></g><g systemLanguage="ko"><g transform="translate(247.21,16.32)"><rect width="40" height="16" rx="8" ry="8" fill="transparent" stroke="var(--border)"/><text x="8.0" y="12" font-size="9.182599999999999" fill="var(--text)" textLength="24" lengthAdjust="spacingAndGlyphs">공공의</text></g></g><g systemLanguage="ar"><g transform="translate(247.21,16.32)"><rect width="40" height="16" rx="8" ry="8" fill="transparent" stroke="var(--border)"/><text x="8.0" y="12" font-size="9.182599999999999" fill="var(--text)" textLength="24" lengthAdjust="spacingAndGlyphs">عام</text></g></g><g systemLanguage="hi"><g transform="translate(247.21,16.32)"><rect width="40" height="16" rx="8" ry="8" fill="transparent" stroke="var(--border)"/><text x="8.0" y="12" font-size="9.182599999999999" fill="var(--text)" textLength="24" lengthAdjust="spacingAndGlyphs">जनता</text></g></g><g systemLanguage="it"><g transform="translate(247.21,16.32)"><rect width="40" height="16" rx="8" ry="8" fill="transparent" stroke="var(--border)"/><text x="8.0" y="12" font-size="9.182599999999999" fill="var(--text)" textLength="24" lengthAdjust="spacingAndGlyphs">Pubblico</text></g></g><g systemLanguage="tr"><g transform="translate(247.21,16.32)"><rect width="40" height="16" rx="8" ry="8" fill="transparent" stroke="var(--border)"/><text x="8.0" y="12" font-size="9.182599999999999" fill="var(--text)" textLength="24" lengthAdjust="spacingAndGlyphs">Halk</text></g></g><g systemLanguage="nl"><g transform="translate(247.21,16.32)"><rect width="40" height="16" rx="8" ry="8" fill="transparent" stroke="var(--border)"/><text x="8.0" y="12" font-size="9.182599999999999" fill="var(--text)" textLength="24" lengthAdjust="spacingAndGlyphs">Openbaar</text></g></g><g systemLanguage="sv"><g transform="translate(247.21,16.32)"><rect width="40" height="16" rx="8" ry="8" fill="transparent" stroke="var(--border)"/><text x="8.0" y="12" font-size="9.182599999999999" fill="var(--text)" textLength="24" lengthAdjust="spacingAndGlyphs">Offentlig</text></g></g><g systemLanguage="pl"><g transform="translate(247.21,16.32)"><rect width="40" height="16" rx="8" ry="8" fill="transparent" stroke="var(--border)"/><text x="8.0" y="12" font-size="9.182599999999999" fill="var(--text)" textLength="24" lengthAdjust="spacingAndGlyphs">Publiczny</text></g></g><g systemLanguage="id"><g transform="translate(247.21,16.32)"><rect width="40" height="16" rx="8" ry="8" fill="transparent" stroke="var(--border)"/><text x="8.0" y="12" font-size="9.182599999999999" fill="var(--text)" textLength="24" lengthAdjust="spacingAndGlyphs">Publik</text></g></g><g systemLanguage="th"><g transform="translate(247.21,16.32)"><rect width="40" height="16" rx="8" ry="8" fill="transparent" stroke="var(--border)"/><text x="8.0" y="12" font-size="9.182599999999999" fill="var(--text)" textLength="24" lengthAdjust="spacingAndGlyphs">สาธารณะ</text></g></g><g systemLanguage="vi"><g transform="translate(247.21,16.32)"><rect width="40" height="16" rx="8" ry="8" fill="transparent" stroke="var(--border)"/><text x="8.0" y="12" font-size="9.182599999999999" fill="var(--text)" textLength="24" lengthAdjust="spacingAndGlyphs">Công cộng</text></g></g><g systemLanguage="uk"><g transform="translate(247.21,16.32)"><rect width="40" height="16" rx="8" ry="8" fill="transparent" stroke="var(--border)"/><text x="8.0" y="12" font-size="9.182599999999999" fill="var(--text)" textLength="24" lengthAdjust="spacingAndGlyphs">Громадський</text></g></g><g><g transform="translate(247.21,16.32)"><rect width="40" height="16" rx="8" ry="8" fill="transparent" stroke="var(--border)"/><text x="8.0" y="12" font-size="9.182599999999999" fill="var(--text)" textLength="24" lengthAdjust="spacingAndGlyphs">Public</text></g></g></switch><switch><g systemLanguage="en"><text x="16" y="57.30" font-size="12.181000000000001" fill="var(--text)">⚡ Dynamically generated, customizable SVG that gives the appearance</text><text x="16" y="73.74" font-size="12.181000000000001" fill="var(--text)">of typing and deleting text for use on your profile page,</text><text x="16" y="90.19" font-size="12.181000000000001" fill="var(--text)">repositories, or website.</text></g><g systemLanguage="es"><text x="16" y="57.30" font-size="12.181000000000001" fill="var(--text)">⚡ SVG personalizable y generado dinámicamente que da la apariencia</text><text x="16" y="73.74" font-size="12.181000000000001" fill="var(--text)">de escribir y eliminar texto para usarlo en su página de perfil,</text><text x="16" y="90.19" font-size="12.181000000000001" fill="var(--text)">repositorios o sitio web.</text></g><g systemLanguage="fr"><text x="16" y="57.30" font-size="12.181000000000001" fill="var(--text)">⚡ SVG personnalisable et généré dynamiquement qui donne</text><text x="16" y="73.74" font-size="12.181000000000001" fill="var(--text)">l&apos;impression de saisir et de supprimer du texte à utiliser sur votre</text><text x="16" y="90.19" font-size="12.181000000000001" fill="var(--text)">page de profil, vos référentiels ou votre site Web.</text></g><g systemLanguage="de"><text x="16" y="57.30" font-size="12.181000000000001" fill="var(--text)">⚡ Dynamisch generiertes, anpassbares SVG, das den Anschein</text><text x="16" y="73.74" font-size="12.181000000000001" fill="var(--text)">erweckt, als würde man Text eingeben und löschen, um ihn auf Ihrer</text><text x="16" y="90.19" font-size="12.181000000000001" fill="var(--text)">Profilseite, in Repositories oder auf Ihrer Website zu verwenden.</text></g><g systemLanguage="pt"><text x="16" y="57.30" font-size="12.181000000000001" fill="var(--text)">⚡ SVG personalizável e gerado dinamicamente que dá a aparência de</text><text x="16" y="73.74" font-size="12.181000000000001" fill="var(--text)">digitação e exclusão de texto para uso em sua página de perfil,</text><text x="16" y="90.19" font-size="12.181000000000001" fill="var(--text)">repositórios ou site.</text></g><g systemLanguage="ru"><text x="16" y="57.30" font-size="12.181000000000001" fill="var(--text)">⚡ Динамически генерируемый настраиваемый SVG, который выглядит</text><text x="16" y="73.74" font-size="12.181000000000001" fill="var(--text)">как ввод и удаление текста для использования на странице вашего</text><text x="16" y="90.19" font-size="12.181000000000001" fill="var(--text)">профиля, в репозиториях или на веб-сайте.</text></g><g systemLanguage="zh-CN"><text x="16" y="57.30" font-size="12.181000000000001" fill="var(--text)">⚡ 动态生成、可定制的 SVG，提供了在您的个人资料页面、存储库或网站上使用的键入和删除文本的外观。</text></g><g systemLanguage="zh-TW"><text x="16" y="57.30" font-size="12.181000000000001" fill="var(--text)">⚡ 動態生成、可定制的 SVG，提供了在您的個人資料頁面、存儲庫或網站上使用的鍵入和刪除文本的外觀。</text></g><g systemLanguage="ja"><text x="16" y="57.30" font-size="12.181000000000001" fill="var(--text)">⚡ プロフィール ページ、リポジトリ、または Web</text><text x="16" y="73.74" font-size="12.181000000000001" fill="var(--text)">サイトで使用するテキストを入力および削除しているように見える、動的に生成されたカスタマイズ可能な SVG。</text></g><g systemLanguage="ko"><text x="16" y="57.30" font-size="12.181000000000001" fill="var(--text)">⚡ 프로필 페이지, 저장소 또는 웹사이트에서 사용할 텍스트를 입력하고 삭제하는 모습을 제공하는 동적으로 생성되고 사용자</text><text x="16" y="73.74" font-size="12.181000000000001" fill="var(--text)">정의 가능한 SVG입니다.</text></g><g systemLanguage="ar"><text x="16" y="57.30" font-size="12.181000000000001" fill="var(--text)">⚡ SVG تم إنشاؤه ديناميكيًا وقابل للتخصيص ويعطي مظهر كتابة النص</text><text x="16" y="73.74" font-size="12.181000000000001" fill="var(--text)">وحذفه لاستخدامه في صفحة ملفك الشخصي أو المستودعات أو موقع الويب</text><text x="16" y="90.19" font-size="12.181000000000001" fill="var(--text)">الخاص بك.</text></g><g systemLanguage="hi"><text x="16" y="57.30" font-size="12.181000000000001" fill="var(--text)">⚡ गतिशील रूप से उत्पन्न, अनुकूलन योग्य एसवीजी जो आपके प्रोफाइल</text><text x="16" y="73.74" font-size="12.181000000000001" fill="var(--text)">पेज, रिपॉजिटरी या वेबसाइट पर उपयोग के लिए टेक्स्ट टाइप करने और</text><text x="16" y="90.19" font-size="12.181000000000001" fill="var(--text)">हटाने का आभास देता है।</text></g><g systemLanguage="it"><text x="16" y="57.30" font-size="12.181000000000001" fill="var(--text)">⚡ SVG personalizzabile e generato dinamicamente che dà l&apos;impressione</text><text x="16" y="73.74" font-size="12.181000000000001" fill="var(--text)">di digitare ed eliminare testo da utilizzare nella pagina del profilo,</text><text x="16" y="90.19" font-size="12.181000000000001" fill="var(--text)">nei repository o nel sito Web.</text></g><g systemLanguage="tr"><text x="16" y="57.30" font-size="12.181000000000001" fill="var(--text)">⚡ Profil sayfanızda, veri havuzlarınızda veya web sitenizde</text><text x="16" y="73.74" font-size="12.181000000000001" fill="var(--text)">kullanmak üzere metin yazma ve silme görünümü veren, dinamik olarak</text><text x="16" y="90.19" font-size="12.181000000000001" fill="var(--text)">oluşturulmuş, özelleştirilebilir SVG.</text></g><g systemLanguage="nl"><text x="16" y="57.30" font-size="12.181000000000001" fill="var(--text)">⚡ Dynamisch gegenereerde, aanpasbare SVG die de indruk geeft dat u</text><text x="16" y="73.74" font-size="12.181000000000001" fill="var(--text)">tekst typt en verwijdert voor gebruik op uw profielpagina,</text><text x="16" y="90.19" font-size="12.181000000000001" fill="var(--text)">opslagplaatsen of website.</text></g><g systemLanguage="sv"><text x="16" y="57.30" font-size="12.181000000000001" fill="var(--text)">⚡ Dynamiskt genererad, anpassningsbar SVG som ger sken av att</text><text x="16" y="73.74" font-size="12.181000000000001" fill="var(--text)">skriva och radera text för användning på din profilsida, arkiv eller</text><text x="16" y="90.19" font-size="12.181000000000001" fill="var(--text)">webbplats.</text></g><g systemLanguage="pl"><text x="16" y="57.30" font-size="12.181000000000001" fill="var(--text)">⚡ Dynamicznie generowany, konfigurowalny plik SVG, który sprawia</text><text x="16" y="73.74" font-size="12.181000000000001" fill="var(--text)">wrażenie wpisywania i usuwania tekstu do wykorzystania na stronie</text><text x="16" y="90.19" font-size="12.181000000000001" fill="var(--text)">profilowej, w repozytoriach lub na stronie internetowej.</text></g><g systemLanguage="id"><text x="16" y="57.30" font-size="12.181000000000001" fill="var(--text)">⚡ SVG yang dihasilkan secara dinamis dan dapat disesuaikan yang</text><text x="16" y="73.74" font-size="12.181000000000001" fill="var(--text)">memberikan tampilan mengetik dan menghapus teks untuk digunakan</text><text x="16" y="90.19" font-size="12.181000000000001" fill="var(--text)">pada halaman profil, repositori, atau situs web Anda.</text></g><g systemLanguage="th"><text x="16" y="57.30" font-size="12.181000000000001" fill="var(--text)">⚡ SVG ที่สร้างได้แบบไดนามิกและปรับแต่งได้</text><text x="16" y="73.74" font-size="12.181000000000001" fill="var(--text)">ซึ่งมีลักษณะเหมือนการพิมพ์และการลบข้อความเพื่อใช้บนหน้าโปรไฟล์</text><text x="16" y="90.19" font-size="12.181000000000001" fill="var(--text)">ที่เก็บ หรือเว็บไซต์ของคุณ</text></g><g systemLanguage="vi"><text x="16" y="57.30" font-size="12.181000000000001" fill="var(--text)">⚡ SVG có thể tùy chỉnh, được tạo động, mang lại giao diện gõ và xóa</text><text x="16" y="73.74" font-size="12.181000000000001" fill="var(--text)">văn bản để sử dụng trên trang hồ sơ, kho lưu trữ hoặc trang web của</text><text x="16" y="90.19" font-size="12.181000000000001" fill="var(--text)">bạn.</text></g><g systemLanguage="uk"><text x="16" y="57.30" font-size="12.181000000000001" fill="var(--text)">⚡ Динамічно згенерований, настроюваний SVG, який створює вигляд</text><text x="16" y="73.74" font-size="12.181000000000001" fill="var(--text)">введення та видалення тексту для використання на сторінці вашого</text><text x="16" y="90.19" font-size="12.181000000000001" fill="var(--text)">профілю, репозиторіях або веб-сайті.</text></g><g><text x="16" y="57.30" font-size="12.181000000000001" fill="var(--text)">⚡ Dynamically generated, customizable SVG that gives the appearance</text><text x="16" y="73.74" font-size="12.181000000000001" fill="var(--text)">of typing and deleting text for use on your profile page,</text><text x="16" y="90.19" font-size="12.181000000000001" fill="var(--text)">repositories, or website.</text></g></switch><circle cx="22" cy="113.6595" r="6" fill="#4F5D95"/><text x="34" y="118" font-size="12.181000000000001" fill="var(--text)">PHP</text><a href="https://github.com/DenverCoder1/readme-typing-svg/stargazers" target="_blank"><g><rect x="68.88" y="105.82" width="38.05" height="12.18" fill="transparent" pointer-events="all" style="cursor:pointer;" /><g transform="translate(68.88,107.65) scale(0.7165)"><path d="M8 .25a.75.75 0 0 1 .673.418l1.882 3.815 4.21.612a.75.75 0 0 1 .416 1.279l-3.046 2.97.719 4.192a.751.751 0 0 1-1.088.791L8 12.347l-3.766 1.98a.75.75 0 0 1-1.088-.79l.72-4.194L.818 6.374a.75.75 0 0 1 .416-1.28l4.21-.611L7.327.668A.75.75 0 0 1 8 .25Zm0 2.445L6.615 5.5a.75.75 0 0 1-.564.41l-3.097.45 2.24 2.184a.75.75 0 0 1 .216.664l-.528 3.084 2.769-1.456a.75.75 0 0 1 .698 0l2.77 1.456-.53-3.084a.75.75 0 0 1 .216-.664l2.24-2.183-3.096-.45a.75.75 0 0 1-.564-.41L8 2.694Z" fill="var(--text)" stroke="none" stroke-width="0" fill-rule="evenodd"/></g><text x="84.88" y="118.00" font-size="12.181000000000001" fill="var(--text)">7.9k</text></g></a><a href="https://github.com/DenverCoder1/readme-typing-svg/forks" target="_blank"><g><rect x="119.11" y="105.82" width="38.05" height="12.18" fill="transparent" pointer-events="all" style="cursor:pointer;" /><g transform="translate(119.11,107.65) scale(0.7165)"><path d="M5 5.372v.878c0 .414.336.75.75.75h4.5a.75.75 0 0 0 .75-.75v-.878a2.25 2.25 0 1 1 1.5 0v.878a2.25 2.25 0 0 1-2.25 2.25h-1.5v2.128a2.251 2.251 0 1 1-1.5 0V8.5h-1.5A2.25 2.25 0 0 1 3.5 6.25v-.878a2.25 2.25 0 1 1 1.5 0ZM5 3.25a.75.75 0 1 0-1.5 0 .75.75 0 0 0 1.5 0Zm6.75.75a.75.75 0 1 0 0-1.5.75.75 0 0 0 0 1.5Zm-3 8.75a.75.75 0 1 0-1.5 0 .75.75 0 0 0 1.5 0Z" fill="var(--text)" stroke="none" stroke-width="0" fill-rule="evenodd"/></g><text x="135.11" y="118.00" font-size="12.181000000000001" fill="var(--text)">1.4k</text></g></a><a href="https://github.com/DenverCoder1/readme-typing-svg/issues" target="_blank"><g><rect x="169.34" y="105.82" width="28.67" height="12.18" fill="transparent" pointer-events="all" style="cursor:pointer;" /><g transform="translate(169.34,107.65) scale(0.7165)"><path d="M8 9.5a1.5 1.5 0 1 0 0-3 1.5 1.5 0 0 0 0 3Z" fill="var(--text)" stroke="none" stroke-width="0" fill-rule="evenodd"/></g><g transform="translate(169.34,107.65) scale(0.7165)"><path d="M8 0a8 8 0 1 1 0 16A8 8 0 0 1 8 0ZM1.5 8a6.5 6.5 0 1 0 13 0 6.5 6.5 0 0 0-13 0Z" fill="var(--text)" stroke="none" stroke-width="0" fill-rule="evenodd"/></g><text x="185.34" y="118.00" font-size="12.181000000000001" fill="var(--text)">22</text></g></a><a href="https://github.com/DenverCoder1/readme-typing-svg/pulls" target="_blank"><g><rect x="210.19" y="105.82" width="28.67" height="12.18" fill="transparent" pointer-events="all" style="cursor:pointer;" /><g transform="translate(210.19,107.65) scale(0.7165)"><path d="M1.5 3.25a2.25 2.25 0 1 1 3 2.122v5.256a2.251 2.251 0 1 1-1.5 0V5.372A2.25 2.25 0 0 1 1.5 3.25Zm5.677-.177L9.573.677A.25.25 0 0 1 10 .854V2.5h1A2.5 2.5 0 0 1 13.5 5v5.628a2.251 2.251 0 1 1-1.5 0V5a1 1 0 0 0-1-1h-1v1.646a.25.25 0 0 1-.427.177L7.177 3.427a.25.25 0 0 1 0-.354ZM3.75 2.5a.75.75 0 1 0 0 1.5.75.75 0 0 0 0-1.5Zm0 9.5a.75.75 0 1 0 0 1.5.75.75 0 0 0 0-1.5Zm8.25.75a.75.75 0 1 0 1.5 0 .75.75 0 0 0-1.5 0Z" fill="var(--text)" stroke="none" stroke-width="0" fill-rule="evenodd"/></g><text x="226.19" y="118.00" font-size="12.181000000000001" fill="var(--text)">23</text></g></a>
          </g>
          <rect 
            x="0.5" 
            y="0.5" 
            width="411" 
            height="133" 
            rx="6" 
            ry="6" 
            fill="none" 
            stroke="var(--border)"
          />
        </svg>
        