<?xml version="1.0" encoding="UTF-8"?>
        <svg 
          width="412" 
          height="134" 
          viewBox="0 0 412 134" 
          xmlns="http://www.w3.org/2000/svg" 
          role="img" 
          aria-label="DenverCoder1/readme-typing-svg"
        >
          <title>DenverCoder1/readme-typing-svg</title>
          <style>:root {
          --canvas: #ffffff; --border: #d1d9e0; 
          --text: #59636e; --danger: #9a6700; --link: #0969da;
        }@media (prefers-color-scheme: dark) { :root {
          --canvas: #212830; --border: #3d444d; 
          --text: #9198a1; --danger: #c69026; --link: #478be6;
        } }text { 
              font-family: -apple-system, 
              BlinkMacSystemFont, 
              "Segoe UI", 
              "Noto Sans", 
              Helvetica, 
              Arial, 
              sans-serif; 
            } 
          </style>
          <defs><clipPath id="clip"><rect 
            x="0" 
            y="0" 
            width="412" 
            height="134" 
            rx="6" 
            ry="6"
          /></clipPath></defs>
          <g clip-path="url(#clip)">
            <rect 
              x="0" 
              y="0" 
              width="412" 
              height="134" 
              fill="var(--canvas)" 
              stroke="var(--border)"
            />
            <g transform="translate(16.00,17.97) scale(0.9412)"><path d="M2 2.5A2.5 2.5 0 0 1 4.5 0h8.75a.75.75 0 0 1 .75.75v12.5a.75.75 0 0 1-.75.75h-2.5a.75.75 0 0 1 0-1.5h1.75v-2h-8a1 1 0 0 0-.714 1.7.75.75 0 1 1-1.072 1.05A2.495 2.495 0 0 1 2 11.5Zm10.5-1h-8a1 1 0 0 0-1 1v6.708A2.486 2.486 0 0 1 4.5 9h8ZM5 12.25a.25.25 0 0 1 .25-.25h3.5a.25.25 0 0 1 .25.25v3.25a.25.25 0 0 1-.4.2l-1.45-1.087a.249.249 0 0 0-.3 0L5.4 15.7a.25.25 0 0 1-.4-.2Z" fill="var(--text)" stroke="none" stroke-width="0" fill-rule="evenodd"/></g>
        <a href="https://github.com/DenverCoder1/readme-typing-svg" target="_blank"><text x="33" y="29.118000000000002" font-size="13.118" fill="var(--link)"><tspan font-weight="500">DenverCoder1/</tspan><tspan font-weight="700">readme-typing-svg</tspan></text></a><g transform="translate(247.21,16.32)"><rect width="40" height="16" rx="8" ry="8" fill="var(--canvas)" stroke="var(--border)"/><text x="8.0" y="12" font-size="9.182599999999999" fill="var(--text)" textLength="24" lengthAdjust="spacingAndGlyphs">Public</text></g><text x="16" y="57.30" font-size="12.181000000000001" fill="var(--text)">⚡ Dynamically generated, customizable SVG that gives the appearance</text><text x="16" y="73.74" font-size="12.181000000000001" fill="var(--text)">of typing and deleting text for use on your profile page,</text><text x="16" y="90.19" font-size="12.181000000000001" fill="var(--text)">repositories, or website.</text><circle cx="22" cy="113.6595" r="6" fill="#4F5D95"/><text x="34" y="118" font-size="12.181000000000001" fill="var(--text)">PHP</text><a href="https://github.com/DenverCoder1/readme-typing-svg/stargazers" target="_blank"><g><rect x="68.88" y="130.18" width="38.05" height="12.18" fill="transparent" pointer-events="all" style="cursor:pointer;" /><g transform="translate(68.88,107.65) scale(0.7165)"><path d="M8 .25a.75.75 0 0 1 .673.418l1.882 3.815 4.21.612a.75.75 0 0 1 .416 1.279l-3.046 2.97.719 4.192a.751.751 0 0 1-1.088.791L8 12.347l-3.766 1.98a.75.75 0 0 1-1.088-.79l.72-4.194L.818 6.374a.75.75 0 0 1 .416-1.28l4.21-.611L7.327.668A.75.75 0 0 1 8 .25Zm0 2.445L6.615 5.5a.75.75 0 0 1-.564.41l-3.097.45 2.24 2.184a.75.75 0 0 1 .216.664l-.528 3.084 2.769-1.456a.75.75 0 0 1 .698 0l2.77 1.456-.53-3.084a.75.75 0 0 1 .216-.664l2.24-2.183-3.096-.45a.75.75 0 0 1-.564-.41L8 2.694Z" fill="var(--text)" stroke="none" stroke-width="0" fill-rule="evenodd"/></g><text x="84.88" y="118.00" font-size="12.181000000000001" fill="var(--text)">7.9k</text></g></a><a href="https://github.com/DenverCoder1/readme-typing-svg/forks" target="_blank"><g><rect x="119.11" y="130.18" width="38.05" height="12.18" fill="transparent" pointer-events="all" style="cursor:pointer;" /><g transform="translate(119.11,107.65) scale(0.7165)"><path d="M5 5.372v.878c0 .414.336.75.75.75h4.5a.75.75 0 0 0 .75-.75v-.878a2.25 2.25 0 1 1 1.5 0v.878a2.25 2.25 0 0 1-2.25 2.25h-1.5v2.128a2.251 2.251 0 1 1-1.5 0V8.5h-1.5A2.25 2.25 0 0 1 3.5 6.25v-.878a2.25 2.25 0 1 1 1.5 0ZM5 3.25a.75.75 0 1 0-1.5 0 .75.75 0 0 0 1.5 0Zm6.75.75a.75.75 0 1 0 0-1.5.75.75 0 0 0 0 1.5Zm-3 8.75a.75.75 0 1 0-1.5 0 .75.75 0 0 0 1.5 0Z" fill="var(--text)" stroke="none" stroke-width="0" fill-rule="evenodd"/></g><text x="135.11" y="118.00" font-size="12.181000000000001" fill="var(--text)">1.4k</text></g></a>
          </g>
          <rect 
            x="0.5" 
            y="0.5" 
            width="411" 
            height="133" 
            rx="6" 
            ry="6" 
            fill="none" 
            stroke="var(--border)"
          />
        </svg>
        