<?xml version="1.0" encoding="UTF-8"?>
        <svg 
          width="412" 
          height="134" 
          viewBox="0 0 412 134" 
          xmlns="http://www.w3.org/2000/svg" 
          role="img" 
          aria-label="profile-icons/GitStats"
        >
          <title>profile-icons/GitStats</title>
          <style>:root {
          --canvas: #ffffff; --border: #d1d9e0; 
          --text: #59636e; --danger: #9a6700; --link: #0969da;
        }@media (prefers-color-scheme: dark) { :root {
          --canvas: #212830; --border: #3d444d; 
          --text: #9198a1; --danger: #c69026; --link: #478be6;
        } }text { 
              font-family: -apple-system, 
              BlinkMacSystemFont, 
              "Segoe UI", 
              "Noto Sans", 
              Helvetica, 
              Arial, 
              sans-serif; 
            } 
          </style>
          <defs><clipPath id="clip"><rect 
            x="0" 
            y="0" 
            width="412" 
            height="134" 
            rx="6" 
            ry="6"
          /></clipPath></defs>
          <g clip-path="url(#clip)">
            <rect 
              x="0" 
              y="0" 
              width="412" 
              height="134" 
              fill="var(--canvas)" 
              stroke="var(--border)"
            />
            <g transform="translate(16.00,17.97) scale(0.9412)"><path d="M2 2.5A2.5 2.5 0 0 1 4.5 0h8.75a.75.75 0 0 1 .75.75v12.5a.75.75 0 0 1-.75.75h-2.5a.75.75 0 0 1 0-1.5h1.75v-2h-8a1 1 0 0 0-.714 1.7.75.75 0 1 1-1.072 1.05A2.495 2.495 0 0 1 2 11.5Zm10.5-1h-8a1 1 0 0 0-1 1v6.708A2.486 2.486 0 0 1 4.5 9h8ZM5 12.25a.25.25 0 0 1 .25-.25h3.5a.25.25 0 0 1 .25.25v3.25a.25.25 0 0 1-.4.2l-1.45-1.087a.249.249 0 0 0-.3 0L5.4 15.7a.25.25 0 0 1-.4-.2Z" fill="var(--text)" stroke="none" stroke-width="0" fill-rule="evenodd"/></g>
        <a href="https://github.com/profile-icons/GitStats" target="_blank"><text x="33" y="29.118000000000002" font-size="13.118" fill="var(--link)"><tspan font-weight="500">profile-icons/</tspan><tspan font-weight="700">GitStats</tspan></text></a><switch><g systemLanguage="en"><g transform="translate(181.89,16.32)"><rect width="74" height="16" rx="8" ry="8" fill="var(--canvas)" stroke="var(--danger)"/><text x="8.0" y="12" font-size="9.182599999999999" fill="var(--danger)" textLength="58" lengthAdjust="spacingAndGlyphs">Public archive</text></g></g><g systemLanguage="es"><g transform="translate(181.89,16.32)"><rect width="74" height="16" rx="8" ry="8" fill="var(--canvas)" stroke="var(--danger)"/><text x="8.0" y="12" font-size="9.182599999999999" fill="var(--danger)" textLength="58" lengthAdjust="spacingAndGlyphs">Archivo público</text></g></g><g systemLanguage="fr"><g transform="translate(181.89,16.32)"><rect width="74" height="16" rx="8" ry="8" fill="var(--canvas)" stroke="var(--danger)"/><text x="8.0" y="12" font-size="9.182599999999999" fill="var(--danger)" textLength="58" lengthAdjust="spacingAndGlyphs">Archives publiques</text></g></g><g systemLanguage="de"><g transform="translate(181.89,16.32)"><rect width="74" height="16" rx="8" ry="8" fill="var(--canvas)" stroke="var(--danger)"/><text x="8.0" y="12" font-size="9.182599999999999" fill="var(--danger)" textLength="58" lengthAdjust="spacingAndGlyphs">Öffentliches Archiv</text></g></g><g systemLanguage="pt"><g transform="translate(181.89,16.32)"><rect width="74" height="16" rx="8" ry="8" fill="var(--canvas)" stroke="var(--danger)"/><text x="8.0" y="12" font-size="9.182599999999999" fill="var(--danger)" textLength="58" lengthAdjust="spacingAndGlyphs">Arquivo público</text></g></g><g systemLanguage="ru"><g transform="translate(181.89,16.32)"><rect width="74" height="16" rx="8" ry="8" fill="var(--canvas)" stroke="var(--danger)"/><text x="8.0" y="12" font-size="9.182599999999999" fill="var(--danger)" textLength="58" lengthAdjust="spacingAndGlyphs">Публичный архив</text></g></g><g systemLanguage="zh-CN"><g transform="translate(181.89,16.32)"><rect width="74" height="16" rx="8" ry="8" fill="var(--canvas)" stroke="var(--danger)"/><text x="8.0" y="12" font-size="9.182599999999999" fill="var(--danger)" textLength="58" lengthAdjust="spacingAndGlyphs">公共档案馆</text></g></g><g systemLanguage="zh-TW"><g transform="translate(181.89,16.32)"><rect width="74" height="16" rx="8" ry="8" fill="var(--canvas)" stroke="var(--danger)"/><text x="8.0" y="12" font-size="9.182599999999999" fill="var(--danger)" textLength="58" lengthAdjust="spacingAndGlyphs">公共檔案館</text></g></g><g systemLanguage="ja"><g transform="translate(181.89,16.32)"><rect width="74" height="16" rx="8" ry="8" fill="var(--canvas)" stroke="var(--danger)"/><text x="8.0" y="12" font-size="9.182599999999999" fill="var(--danger)" textLength="58" lengthAdjust="spacingAndGlyphs">公開アーカイブ</text></g></g><g systemLanguage="ko"><g transform="translate(181.89,16.32)"><rect width="74" height="16" rx="8" ry="8" fill="var(--canvas)" stroke="var(--danger)"/><text x="8.0" y="12" font-size="9.182599999999999" fill="var(--danger)" textLength="58" lengthAdjust="spacingAndGlyphs">공개 아카이브</text></g></g><g systemLanguage="ar"><g transform="translate(181.89,16.32)"><rect width="74" height="16" rx="8" ry="8" fill="var(--canvas)" stroke="var(--danger)"/><text x="8.0" y="12" font-size="9.182599999999999" fill="var(--danger)" textLength="58" lengthAdjust="spacingAndGlyphs">الأرشيف العام</text></g></g><g systemLanguage="hi"><g transform="translate(181.89,16.32)"><rect width="74" height="16" rx="8" ry="8" fill="var(--canvas)" stroke="var(--danger)"/><text x="8.0" y="12" font-size="9.182599999999999" fill="var(--danger)" textLength="58" lengthAdjust="spacingAndGlyphs">सार्वजनिक संग्रह</text></g></g><g systemLanguage="it"><g transform="translate(181.89,16.32)"><rect width="74" height="16" rx="8" ry="8" fill="var(--canvas)" stroke="var(--danger)"/><text x="8.0" y="12" font-size="9.182599999999999" fill="var(--danger)" textLength="58" lengthAdjust="spacingAndGlyphs">Archivio pubblico</text></g></g><g systemLanguage="tr"><g transform="translate(181.89,16.32)"><rect width="74" height="16" rx="8" ry="8" fill="var(--canvas)" stroke="var(--danger)"/><text x="8.0" y="12" font-size="9.182599999999999" fill="var(--danger)" textLength="58" lengthAdjust="spacingAndGlyphs">Herkese açık arşiv</text></g></g><g systemLanguage="nl"><g transform="translate(181.89,16.32)"><rect width="74" height="16" rx="8" ry="8" fill="var(--canvas)" stroke="var(--danger)"/><text x="8.0" y="12" font-size="9.182599999999999" fill="var(--danger)" textLength="58" lengthAdjust="spacingAndGlyphs">Openbaar archief</text></g></g><g systemLanguage="sv"><g transform="translate(181.89,16.32)"><rect width="74" height="16" rx="8" ry="8" fill="var(--canvas)" stroke="var(--danger)"/><text x="8.0" y="12" font-size="9.182599999999999" fill="var(--danger)" textLength="58" lengthAdjust="spacingAndGlyphs">Offentligt arkiv</text></g></g><g systemLanguage="pl"><g transform="translate(181.89,16.32)"><rect width="74" height="16" rx="8" ry="8" fill="var(--canvas)" stroke="var(--danger)"/><text x="8.0" y="12" font-size="9.182599999999999" fill="var(--danger)" textLength="58" lengthAdjust="spacingAndGlyphs">Archiwum publiczne</text></g></g><g systemLanguage="id"><g transform="translate(181.89,16.32)"><rect width="74" height="16" rx="8" ry="8" fill="var(--canvas)" stroke="var(--danger)"/><text x="8.0" y="12" font-size="9.182599999999999" fill="var(--danger)" textLength="58" lengthAdjust="spacingAndGlyphs">Arsip publik</text></g></g><g systemLanguage="th"><g transform="translate(181.89,16.32)"><rect width="74" height="16" rx="8" ry="8" fill="var(--canvas)" stroke="var(--danger)"/><text x="8.0" y="12" font-size="9.182599999999999" fill="var(--danger)" textLength="58" lengthAdjust="spacingAndGlyphs">ที่เก็บถาวรสาธารณะ</text></g></g><g systemLanguage="vi"><g transform="translate(181.89,16.32)"><rect width="74" height="16" rx="8" ry="8" fill="var(--canvas)" stroke="var(--danger)"/><text x="8.0" y="12" font-size="9.182599999999999" fill="var(--danger)" textLength="58" lengthAdjust="spacingAndGlyphs">Lưu trữ công cộng</text></g></g><g systemLanguage="uk"><g transform="translate(181.89,16.32)"><rect width="74" height="16" rx="8" ry="8" fill="var(--canvas)" stroke="var(--danger)"/><text x="8.0" y="12" font-size="9.182599999999999" fill="var(--danger)" textLength="58" lengthAdjust="spacingAndGlyphs">Громадський архів</text></g></g><g><g transform="translate(181.89,16.32)"><rect width="74" height="16" rx="8" ry="8" fill="var(--canvas)" stroke="var(--danger)"/><text x="8.0" y="12" font-size="9.182599999999999" fill="var(--danger)" textLength="58" lengthAdjust="spacingAndGlyphs">Public archive</text></g></g></switch><switch><g systemLanguage="en"><text x="16" y="57.30" font-size="12.181000000000001" fill="var(--text)">Outdated. Upgrades coming soon! Generate regularly updated</text><text x="16" y="73.74" font-size="12.181000000000001" fill="var(--text)">visualizations of personalized GitHub statistics. Successor to the</text><text x="16" y="90.19" font-size="12.181000000000001" fill="var(--text)">March &apos;21 GitStats.</text></g><g systemLanguage="es"><text x="16" y="57.30" font-size="12.181000000000001" fill="var(--text)">Anticuado. ¡Actualizaciones próximamente! Genere visualizaciones</text><text x="16" y="73.74" font-size="12.181000000000001" fill="var(--text)">actualizadas periódicamente de estadísticas personalizadas de</text><text x="16" y="90.19" font-size="12.181000000000001" fill="var(--text)">GitHub. Sucesor del GitStats del 21 de marzo.</text></g><g systemLanguage="fr"><text x="16" y="57.30" font-size="12.181000000000001" fill="var(--text)">Dépassé. Des mises à niveau à venir ! Générez des visualisations</text><text x="16" y="73.74" font-size="12.181000000000001" fill="var(--text)">régulièrement mises à jour de statistiques GitHub personnalisées.</text><text x="16" y="90.19" font-size="12.181000000000001" fill="var(--text)">Successeur des GitStats de mars 21.</text></g><g systemLanguage="de"><text x="16" y="57.30" font-size="12.181000000000001" fill="var(--text)">Veraltet. Bald kommen Upgrades! Generieren Sie regelmäßig</text><text x="16" y="73.74" font-size="12.181000000000001" fill="var(--text)">aktualisierte Visualisierungen personalisierter GitHub-Statistiken.</text><text x="16" y="90.19" font-size="12.181000000000001" fill="var(--text)">Nachfolger der GitStats vom März &apos;21.</text></g><g systemLanguage="pt"><text x="16" y="57.30" font-size="12.181000000000001" fill="var(--text)">Desatualizado. Atualizações em breve! Gere visualizações atualizadas</text><text x="16" y="73.74" font-size="12.181000000000001" fill="var(--text)">regularmente de estatísticas personalizadas do GitHub. Sucessor do</text><text x="16" y="90.19" font-size="12.181000000000001" fill="var(--text)">GitStats de março de 21.</text></g><g systemLanguage="ru"><text x="16" y="57.30" font-size="12.181000000000001" fill="var(--text)">Устарело. Скоро будут обновления! Создавайте регулярно</text><text x="16" y="73.74" font-size="12.181000000000001" fill="var(--text)">обновляемые визуализации персонализированной статистики GitHub.</text><text x="16" y="90.19" font-size="12.181000000000001" fill="var(--text)">Преемник GitStats от марта &apos;21.</text></g><g systemLanguage="zh-CN"><text x="16" y="57.30" font-size="12.181000000000001" fill="var(--text)">过时了。升级即将推出！生成定期更新的个性化 GitHub 统计数据可视化。 21 年 3 月 GitStats 的继任者。</text></g><g systemLanguage="zh-TW"><text x="16" y="57.30" font-size="12.181000000000001" fill="var(--text)">過時了。升級即將推出！生成定期更新的個性化 GitHub 統計數據可視化。 21 年 3 月 GitStats 的繼任者。</text></g><g systemLanguage="ja"><text x="16" y="57.30" font-size="12.181000000000001" fill="var(--text)">時代遅れです。アップグレードも近日実施予定！パーソナライズされた GitHub 統計の定期的に更新される視覚化を生成します。</text><text x="16" y="73.74" font-size="12.181000000000001" fill="var(--text)">21 年 3 月の GitStats の後継。</text></g><g systemLanguage="ko"><text x="16" y="57.30" font-size="12.181000000000001" fill="var(--text)">구식. 곧 업그레이드가 제공됩니다! 개인화된 GitHub 통계에 대해 정기적으로 업데이트되는 시각화를 생성합니다.</text><text x="16" y="73.74" font-size="12.181000000000001" fill="var(--text)">2021년 3월 GitStats의 후속 버전입니다.</text></g><g systemLanguage="ar"><text x="16" y="57.30" font-size="12.181000000000001" fill="var(--text)">عفا عليها الزمن. ترقيات قريبا! قم بإنشاء تصورات محدثة بانتظام</text><text x="16" y="73.74" font-size="12.181000000000001" fill="var(--text)">لإحصائيات GitHub المخصصة. خليفة لـ GitStats في 21 مارس.</text></g><g systemLanguage="hi"><text x="16" y="57.30" font-size="12.181000000000001" fill="var(--text)">रगड़ा हुआ। अपग्रेड जल्द ही आ रहे हैं! वैयक्तिकृत GitHub आँकड़ों के</text><text x="16" y="73.74" font-size="12.181000000000001" fill="var(--text)">नियमित रूप से अद्यतन विज़ुअलाइज़ेशन उत्पन्न करें। मार्च &apos;21</text><text x="16" y="90.19" font-size="12.181000000000001" fill="var(--text)">GitStats का उत्तराधिकारी।</text></g><g systemLanguage="it"><text x="16" y="57.30" font-size="12.181000000000001" fill="var(--text)">Obsoleto. Aggiornamenti in arrivo! Genera visualizzazioni</text><text x="16" y="73.74" font-size="12.181000000000001" fill="var(--text)">regolarmente aggiornate delle statistiche GitHub personalizzate.</text><text x="16" y="90.19" font-size="12.181000000000001" fill="var(--text)">Successore di GitStats di marzo &apos;21.</text></g><g systemLanguage="tr"><text x="16" y="57.30" font-size="12.181000000000001" fill="var(--text)">Modası geçmiş. Yükseltmeler çok yakında! Kişiselleştirilmiş GitHub</text><text x="16" y="73.74" font-size="12.181000000000001" fill="var(--text)">istatistiklerinin düzenli olarak güncellenen görselleştirmelerini</text><text x="16" y="90.19" font-size="12.181000000000001" fill="var(--text)">oluşturun. Mart &apos;21 GitStats&apos;ın halefi.</text></g><g systemLanguage="nl"><text x="16" y="57.30" font-size="12.181000000000001" fill="var(--text)">Verouderd. Upgrades binnenkort beschikbaar! Genereer regelmatig</text><text x="16" y="73.74" font-size="12.181000000000001" fill="var(--text)">bijgewerkte visualisaties van gepersonaliseerde</text><text x="16" y="90.19" font-size="12.181000000000001" fill="var(--text)">GitHub-statistieken. Opvolger van de GitStats van maart &apos;21.</text></g><g systemLanguage="sv"><text x="16" y="57.30" font-size="12.181000000000001" fill="var(--text)">Föråldrad. Uppgraderingar kommer snart! Generera regelbundet</text><text x="16" y="73.74" font-size="12.181000000000001" fill="var(--text)">uppdaterade visualiseringar av personlig GitHub-statistik.</text><text x="16" y="90.19" font-size="12.181000000000001" fill="var(--text)">Efterträdare till GitStats för mars &apos;21.</text></g><g systemLanguage="pl"><text x="16" y="57.30" font-size="12.181000000000001" fill="var(--text)">Przestarzały. Aktualizacje już wkrótce! Generuj regularnie</text><text x="16" y="73.74" font-size="12.181000000000001" fill="var(--text)">aktualizowane wizualizacje spersonalizowanych statystyk GitHub.</text><text x="16" y="90.19" font-size="12.181000000000001" fill="var(--text)">Następca GitStats z marca 21 roku.</text></g><g systemLanguage="id"><text x="16" y="57.30" font-size="12.181000000000001" fill="var(--text)">Kedaluwarsa. Peningkatan segera hadir! Hasilkan visualisasi statistik</text><text x="16" y="73.74" font-size="12.181000000000001" fill="var(--text)">GitHub yang dipersonalisasi dan diperbarui secara berkala. Penerus</text><text x="16" y="90.19" font-size="12.181000000000001" fill="var(--text)">GitStats Maret &apos;21.</text></g><g systemLanguage="th"><text x="16" y="57.30" font-size="12.181000000000001" fill="var(--text)">ล้าสมัย การอัพเกรดในเร็ว ๆ นี้! สร้างการแสดงภาพสถิติ GitHub</text><text x="16" y="73.74" font-size="12.181000000000001" fill="var(--text)">ส่วนบุคคลที่อัปเดตเป็นประจำ ผู้สืบทอดของ GitStats เดือนมีนาคม</text><text x="16" y="90.19" font-size="12.181000000000001" fill="var(--text)">21</text></g><g systemLanguage="vi"><text x="16" y="57.30" font-size="12.181000000000001" fill="var(--text)">Đã lỗi thời. Sắp có nâng cấp! Tạo trực quan hóa được cập nhật thường</text><text x="16" y="73.74" font-size="12.181000000000001" fill="var(--text)">xuyên về số liệu thống kê GitHub được cá nhân hóa. Người kế nhiệm của</text><text x="16" y="90.19" font-size="12.181000000000001" fill="var(--text)">GitStats ngày 21 tháng 3.</text></g><g systemLanguage="uk"><text x="16" y="57.30" font-size="12.181000000000001" fill="var(--text)">Застаріла. Оновлення незабаром! Створюйте регулярно оновлювані</text><text x="16" y="73.74" font-size="12.181000000000001" fill="var(--text)">візуалізації персоналізованої статистики GitHub. Наступник</text><text x="16" y="90.19" font-size="12.181000000000001" fill="var(--text)">GitStats березня 21 року.</text></g><g><text x="16" y="57.30" font-size="12.181000000000001" fill="var(--text)">Outdated. Upgrades coming soon! Generate regularly updated</text><text x="16" y="73.74" font-size="12.181000000000001" fill="var(--text)">visualizations of personalized GitHub statistics. Successor to the</text><text x="16" y="90.19" font-size="12.181000000000001" fill="var(--text)">March &apos;21 GitStats.</text></g></switch><circle cx="22" cy="113.6595" r="6" fill="#3572A5"/><text x="34" y="118" font-size="12.181000000000001" fill="var(--text)">Python</text>
          </g>
          <rect 
            x="0.5" 
            y="0.5" 
            width="411" 
            height="133" 
            rx="6" 
            ry="6" 
            fill="none" 
            stroke="var(--border)"
          />
        </svg>
        