<?xml version="1.0" encoding="UTF-8"?>
        <svg 
          width="412" 
          height="134" 
          viewBox="0 0 412 134" 
          xmlns="http://www.w3.org/2000/svg" 
          role="img" 
          aria-label="Hacktoberfest-Stats/hacktoberfest-stats"
        >
          <title>Hacktoberfest-Stats/hacktoberfest-stats</title>
          <style>:root {
          --canvas: #ffffff; --border: #d1d9e0; 
          --text: #59636e; --danger: #9a6700; --link: #0969da;
        }@media (prefers-color-scheme: dark) { :root {
          --canvas: #212830; --border: #3d444d; 
          --text: #9198a1; --danger: #c69026; --link: #478be6;
        } }text { 
              font-family: -apple-system, 
              BlinkMacSystemFont, 
              "Segoe UI", 
              "Noto Sans", 
              Helvetica, 
              Arial, 
              sans-serif; 
            } 
          </style>
          <defs><clipPath id="clip"><rect 
            x="0" 
            y="0" 
            width="412" 
            height="134" 
            rx="6" 
            ry="6"
          /></clipPath></defs>
          <g clip-path="url(#clip)">
            <rect 
              x="0" 
              y="0" 
              width="412" 
              height="134" 
              fill="var(--canvas)" 
              stroke="var(--border)"
            />
            <g transform="translate(16.00,17.97) scale(0.9412)"><path d="M2 2.5A2.5 2.5 0 0 1 4.5 0h8.75a.75.75 0 0 1 .75.75v12.5a.75.75 0 0 1-.75.75h-2.5a.75.75 0 0 1 0-1.5h1.75v-2h-8a1 1 0 0 0-.714 1.7.75.75 0 1 1-1.072 1.05A2.495 2.495 0 0 1 2 11.5Zm10.5-1h-8a1 1 0 0 0-1 1v6.708A2.486 2.486 0 0 1 4.5 9h8ZM5 12.25a.25.25 0 0 1 .25-.25h3.5a.25.25 0 0 1 .25.25v3.25a.25.25 0 0 1-.4.2l-1.45-1.087a.249.249 0 0 0-.3 0L5.4 15.7a.25.25 0 0 1-.4-.2Z" fill="var(--text)" stroke="none" stroke-width="0" fill-rule="evenodd"/></g>
        <a href="https://github.com/Hacktoberfest-Stats/hacktoberfest-stats/" target="_blank"><text x="33" y="29.118000000000002" font-size="13.118" fill="var(--link)"><tspan font-weight="500">Hacktoberfest-Stats/</tspan><tspan font-weight="700">hacktoberfest-stats</tspan></text></a><switch><g systemLanguage="af"><g transform="translate(308.74,16.32)"><rect width="40" height="16" rx="8" ry="8" fill="transparent" stroke="var(--border)"/><text x="8.0" y="12" font-size="9.182599999999999" fill="var(--text)" textLength="24" lengthAdjust="spacingAndGlyphs">Publiek</text></g></g><g systemLanguage="sq"><g transform="translate(308.74,16.32)"><rect width="40" height="16" rx="8" ry="8" fill="transparent" stroke="var(--border)"/><text x="8.0" y="12" font-size="9.182599999999999" fill="var(--text)" textLength="24" lengthAdjust="spacingAndGlyphs">Publike</text></g></g><g systemLanguage="am"><g transform="translate(308.74,16.32)"><rect width="40" height="16" rx="8" ry="8" fill="transparent" stroke="var(--border)"/><text x="8.0" y="12" font-size="9.182599999999999" fill="var(--text)" textLength="24" lengthAdjust="spacingAndGlyphs">ህዝብ</text></g></g><g systemLanguage="ar"><g transform="translate(308.74,16.32)"><rect width="40" height="16" rx="8" ry="8" fill="transparent" stroke="var(--border)"/><text x="8.0" y="12" font-size="9.182599999999999" fill="var(--text)" textLength="24" lengthAdjust="spacingAndGlyphs">عام</text></g></g><g systemLanguage="hy"><g transform="translate(308.74,16.32)"><rect width="40" height="16" rx="8" ry="8" fill="transparent" stroke="var(--border)"/><text x="8.0" y="12" font-size="9.182599999999999" fill="var(--text)" textLength="24" lengthAdjust="spacingAndGlyphs">Հանրային</text></g></g><g systemLanguage="as"><g transform="translate(308.74,16.32)"><rect width="40" height="16" rx="8" ry="8" fill="transparent" stroke="var(--border)"/><text x="8.0" y="12" font-size="9.182599999999999" fill="var(--text)" textLength="24" lengthAdjust="spacingAndGlyphs">ৰাজহুৱা</text></g></g><g systemLanguage="ay"><g transform="translate(308.74,16.32)"><rect width="40" height="16" rx="8" ry="8" fill="transparent" stroke="var(--border)"/><text x="8.0" y="12" font-size="9.182599999999999" fill="var(--text)" textLength="24" lengthAdjust="spacingAndGlyphs">Taqitaki</text></g></g><g systemLanguage="az"><g transform="translate(308.74,16.32)"><rect width="40" height="16" rx="8" ry="8" fill="transparent" stroke="var(--border)"/><text x="8.0" y="12" font-size="9.182599999999999" fill="var(--text)" textLength="24" lengthAdjust="spacingAndGlyphs">İctimai</text></g></g><g systemLanguage="bm"><g transform="translate(308.74,16.32)"><rect width="40" height="16" rx="8" ry="8" fill="transparent" stroke="var(--border)"/><text x="8.0" y="12" font-size="9.182599999999999" fill="var(--text)" textLength="24" lengthAdjust="spacingAndGlyphs">Foroba</text></g></g><g systemLanguage="eu"><g transform="translate(308.74,16.32)"><rect width="40" height="16" rx="8" ry="8" fill="transparent" stroke="var(--border)"/><text x="8.0" y="12" font-size="9.182599999999999" fill="var(--text)" textLength="24" lengthAdjust="spacingAndGlyphs">Publikoa</text></g></g><g systemLanguage="be"><g transform="translate(308.74,16.32)"><rect width="40" height="16" rx="8" ry="8" fill="transparent" stroke="var(--border)"/><text x="8.0" y="12" font-size="9.182599999999999" fill="var(--text)" textLength="24" lengthAdjust="spacingAndGlyphs">Грамадскі</text></g></g><g systemLanguage="bn"><g transform="translate(308.74,16.32)"><rect width="40" height="16" rx="8" ry="8" fill="transparent" stroke="var(--border)"/><text x="8.0" y="12" font-size="9.182599999999999" fill="var(--text)" textLength="24" lengthAdjust="spacingAndGlyphs">পাবলিক</text></g></g><g systemLanguage="bho"><g transform="translate(308.74,16.32)"><rect width="40" height="16" rx="8" ry="8" fill="transparent" stroke="var(--border)"/><text x="8.0" y="12" font-size="9.182599999999999" fill="var(--text)" textLength="24" lengthAdjust="spacingAndGlyphs">जनता</text></g></g><g systemLanguage="bs"><g transform="translate(308.74,16.32)"><rect width="40" height="16" rx="8" ry="8" fill="transparent" stroke="var(--border)"/><text x="8.0" y="12" font-size="9.182599999999999" fill="var(--text)" textLength="24" lengthAdjust="spacingAndGlyphs">Javno</text></g></g><g systemLanguage="bg"><g transform="translate(308.74,16.32)"><rect width="40" height="16" rx="8" ry="8" fill="transparent" stroke="var(--border)"/><text x="8.0" y="12" font-size="9.182599999999999" fill="var(--text)" textLength="24" lengthAdjust="spacingAndGlyphs">Обществен</text></g></g><g systemLanguage="ca"><g transform="translate(308.74,16.32)"><rect width="40" height="16" rx="8" ry="8" fill="transparent" stroke="var(--border)"/><text x="8.0" y="12" font-size="9.182599999999999" fill="var(--text)" textLength="24" lengthAdjust="spacingAndGlyphs">Públic</text></g></g><g systemLanguage="ceb"><g transform="translate(308.74,16.32)"><rect width="40" height="16" rx="8" ry="8" fill="transparent" stroke="var(--border)"/><text x="8.0" y="12" font-size="9.182599999999999" fill="var(--text)" textLength="24" lengthAdjust="spacingAndGlyphs">Publiko</text></g></g><g systemLanguage="ny"><g transform="translate(308.74,16.32)"><rect width="40" height="16" rx="8" ry="8" fill="transparent" stroke="var(--border)"/><text x="8.0" y="12" font-size="9.182599999999999" fill="var(--text)" textLength="24" lengthAdjust="spacingAndGlyphs">Za anthu</text></g></g><g systemLanguage="zh-CN"><g transform="translate(308.74,16.32)"><rect width="40" height="16" rx="8" ry="8" fill="transparent" stroke="var(--border)"/><text x="8.0" y="12" font-size="9.182599999999999" fill="var(--text)" textLength="24" lengthAdjust="spacingAndGlyphs">民众</text></g></g><g systemLanguage="zh-TW"><g transform="translate(308.74,16.32)"><rect width="40" height="16" rx="8" ry="8" fill="transparent" stroke="var(--border)"/><text x="8.0" y="12" font-size="9.182599999999999" fill="var(--text)" textLength="24" lengthAdjust="spacingAndGlyphs">民眾</text></g></g><g systemLanguage="co"><g transform="translate(308.74,16.32)"><rect width="40" height="16" rx="8" ry="8" fill="transparent" stroke="var(--border)"/><text x="8.0" y="12" font-size="9.182599999999999" fill="var(--text)" textLength="24" lengthAdjust="spacingAndGlyphs">Publicu</text></g></g><g systemLanguage="hr"><g transform="translate(308.74,16.32)"><rect width="40" height="16" rx="8" ry="8" fill="transparent" stroke="var(--border)"/><text x="8.0" y="12" font-size="9.182599999999999" fill="var(--text)" textLength="24" lengthAdjust="spacingAndGlyphs">Javnost</text></g></g><g systemLanguage="cs"><g transform="translate(308.74,16.32)"><rect width="40" height="16" rx="8" ry="8" fill="transparent" stroke="var(--border)"/><text x="8.0" y="12" font-size="9.182599999999999" fill="var(--text)" textLength="24" lengthAdjust="spacingAndGlyphs">Veřejnost</text></g></g><g systemLanguage="da"><g transform="translate(308.74,16.32)"><rect width="40" height="16" rx="8" ry="8" fill="transparent" stroke="var(--border)"/><text x="8.0" y="12" font-size="9.182599999999999" fill="var(--text)" textLength="24" lengthAdjust="spacingAndGlyphs">Offentlig</text></g></g><g systemLanguage="dv"><g transform="translate(308.74,16.32)"><rect width="40" height="16" rx="8" ry="8" fill="transparent" stroke="var(--border)"/><text x="8.0" y="12" font-size="9.182599999999999" fill="var(--text)" textLength="24" lengthAdjust="spacingAndGlyphs">ޢާންމު</text></g></g><g systemLanguage="doi"><g transform="translate(308.74,16.32)"><rect width="40" height="16" rx="8" ry="8" fill="transparent" stroke="var(--border)"/><text x="8.0" y="12" font-size="9.182599999999999" fill="var(--text)" textLength="24" lengthAdjust="spacingAndGlyphs">जनता</text></g></g><g systemLanguage="nl"><g transform="translate(308.74,16.32)"><rect width="40" height="16" rx="8" ry="8" fill="transparent" stroke="var(--border)"/><text x="8.0" y="12" font-size="9.182599999999999" fill="var(--text)" textLength="24" lengthAdjust="spacingAndGlyphs">Openbaar</text></g></g><g systemLanguage="en"><g transform="translate(308.74,16.32)"><rect width="40" height="16" rx="8" ry="8" fill="transparent" stroke="var(--border)"/><text x="8.0" y="12" font-size="9.182599999999999" fill="var(--text)" textLength="24" lengthAdjust="spacingAndGlyphs">Public</text></g></g><g systemLanguage="eo"><g transform="translate(308.74,16.32)"><rect width="40" height="16" rx="8" ry="8" fill="transparent" stroke="var(--border)"/><text x="8.0" y="12" font-size="9.182599999999999" fill="var(--text)" textLength="24" lengthAdjust="spacingAndGlyphs">Publiko</text></g></g><g systemLanguage="et"><g transform="translate(308.74,16.32)"><rect width="40" height="16" rx="8" ry="8" fill="transparent" stroke="var(--border)"/><text x="8.0" y="12" font-size="9.182599999999999" fill="var(--text)" textLength="24" lengthAdjust="spacingAndGlyphs">Avalik</text></g></g><g systemLanguage="ee"><g transform="translate(308.74,16.32)"><rect width="40" height="16" rx="8" ry="8" fill="transparent" stroke="var(--border)"/><text x="8.0" y="12" font-size="9.182599999999999" fill="var(--text)" textLength="24" lengthAdjust="spacingAndGlyphs">Amedome</text></g></g><g systemLanguage="tl"><g transform="translate(308.74,16.32)"><rect width="40" height="16" rx="8" ry="8" fill="transparent" stroke="var(--border)"/><text x="8.0" y="12" font-size="9.182599999999999" fill="var(--text)" textLength="24" lengthAdjust="spacingAndGlyphs">Publiko</text></g></g><g systemLanguage="fi"><g transform="translate(308.74,16.32)"><rect width="40" height="16" rx="8" ry="8" fill="transparent" stroke="var(--border)"/><text x="8.0" y="12" font-size="9.182599999999999" fill="var(--text)" textLength="24" lengthAdjust="spacingAndGlyphs">Julkinen</text></g></g><g systemLanguage="fr"><g transform="translate(308.74,16.32)"><rect width="40" height="16" rx="8" ry="8" fill="transparent" stroke="var(--border)"/><text x="8.0" y="12" font-size="9.182599999999999" fill="var(--text)" textLength="24" lengthAdjust="spacingAndGlyphs">Publique</text></g></g><g systemLanguage="fy"><g transform="translate(308.74,16.32)"><rect width="40" height="16" rx="8" ry="8" fill="transparent" stroke="var(--border)"/><text x="8.0" y="12" font-size="9.182599999999999" fill="var(--text)" textLength="24" lengthAdjust="spacingAndGlyphs">Iepenbier</text></g></g><g systemLanguage="gl"><g transform="translate(308.74,16.32)"><rect width="40" height="16" rx="8" ry="8" fill="transparent" stroke="var(--border)"/><text x="8.0" y="12" font-size="9.182599999999999" fill="var(--text)" textLength="24" lengthAdjust="spacingAndGlyphs">Público</text></g></g><g systemLanguage="ka"><g transform="translate(308.74,16.32)"><rect width="40" height="16" rx="8" ry="8" fill="transparent" stroke="var(--border)"/><text x="8.0" y="12" font-size="9.182599999999999" fill="var(--text)" textLength="24" lengthAdjust="spacingAndGlyphs">საჯარო</text></g></g><g systemLanguage="de"><g transform="translate(308.74,16.32)"><rect width="40" height="16" rx="8" ry="8" fill="transparent" stroke="var(--border)"/><text x="8.0" y="12" font-size="9.182599999999999" fill="var(--text)" textLength="24" lengthAdjust="spacingAndGlyphs">Öffentlich</text></g></g><g systemLanguage="el"><g transform="translate(308.74,16.32)"><rect width="40" height="16" rx="8" ry="8" fill="transparent" stroke="var(--border)"/><text x="8.0" y="12" font-size="9.182599999999999" fill="var(--text)" textLength="24" lengthAdjust="spacingAndGlyphs">Κοινό</text></g></g><g systemLanguage="gn"><g transform="translate(308.74,16.32)"><rect width="40" height="16" rx="8" ry="8" fill="transparent" stroke="var(--border)"/><text x="8.0" y="12" font-size="9.182599999999999" fill="var(--text)" textLength="24" lengthAdjust="spacingAndGlyphs">Opavavépe g̃uarã</text></g></g><g systemLanguage="gu"><g transform="translate(308.74,16.32)"><rect width="40" height="16" rx="8" ry="8" fill="transparent" stroke="var(--border)"/><text x="8.0" y="12" font-size="9.182599999999999" fill="var(--text)" textLength="24" lengthAdjust="spacingAndGlyphs">જાહેર</text></g></g><g systemLanguage="ht"><g transform="translate(308.74,16.32)"><rect width="40" height="16" rx="8" ry="8" fill="transparent" stroke="var(--border)"/><text x="8.0" y="12" font-size="9.182599999999999" fill="var(--text)" textLength="24" lengthAdjust="spacingAndGlyphs">Piblik</text></g></g><g systemLanguage="ha"><g transform="translate(308.74,16.32)"><rect width="40" height="16" rx="8" ry="8" fill="transparent" stroke="var(--border)"/><text x="8.0" y="12" font-size="9.182599999999999" fill="var(--text)" textLength="24" lengthAdjust="spacingAndGlyphs">Na jama&apos;a</text></g></g><g systemLanguage="haw"><g transform="translate(308.74,16.32)"><rect width="40" height="16" rx="8" ry="8" fill="transparent" stroke="var(--border)"/><text x="8.0" y="12" font-size="9.182599999999999" fill="var(--text)" textLength="24" lengthAdjust="spacingAndGlyphs">Lehulehu</text></g></g><g systemLanguage="he"><g transform="translate(308.74,16.32)"><rect width="40" height="16" rx="8" ry="8" fill="transparent" stroke="var(--border)"/><text x="8.0" y="12" font-size="9.182599999999999" fill="var(--text)" textLength="24" lengthAdjust="spacingAndGlyphs">פּוּמְבֵּי</text></g></g><g systemLanguage="hi"><g transform="translate(308.74,16.32)"><rect width="40" height="16" rx="8" ry="8" fill="transparent" stroke="var(--border)"/><text x="8.0" y="12" font-size="9.182599999999999" fill="var(--text)" textLength="24" lengthAdjust="spacingAndGlyphs">जनता</text></g></g><g systemLanguage="hmn"><g transform="translate(308.74,16.32)"><rect width="40" height="16" rx="8" ry="8" fill="transparent" stroke="var(--border)"/><text x="8.0" y="12" font-size="9.182599999999999" fill="var(--text)" textLength="24" lengthAdjust="spacingAndGlyphs">Luam</text></g></g><g systemLanguage="hu"><g transform="translate(308.74,16.32)"><rect width="40" height="16" rx="8" ry="8" fill="transparent" stroke="var(--border)"/><text x="8.0" y="12" font-size="9.182599999999999" fill="var(--text)" textLength="24" lengthAdjust="spacingAndGlyphs">Nyilvános</text></g></g><g systemLanguage="is"><g transform="translate(308.74,16.32)"><rect width="40" height="16" rx="8" ry="8" fill="transparent" stroke="var(--border)"/><text x="8.0" y="12" font-size="9.182599999999999" fill="var(--text)" textLength="24" lengthAdjust="spacingAndGlyphs">Opinber</text></g></g><g systemLanguage="ig"><g transform="translate(308.74,16.32)"><rect width="40" height="16" rx="8" ry="8" fill="transparent" stroke="var(--border)"/><text x="8.0" y="12" font-size="9.182599999999999" fill="var(--text)" textLength="24" lengthAdjust="spacingAndGlyphs">Nke oha</text></g></g><g systemLanguage="ilo"><g transform="translate(308.74,16.32)"><rect width="40" height="16" rx="8" ry="8" fill="transparent" stroke="var(--border)"/><text x="8.0" y="12" font-size="9.182599999999999" fill="var(--text)" textLength="24" lengthAdjust="spacingAndGlyphs">Publiko</text></g></g><g systemLanguage="id"><g transform="translate(308.74,16.32)"><rect width="40" height="16" rx="8" ry="8" fill="transparent" stroke="var(--border)"/><text x="8.0" y="12" font-size="9.182599999999999" fill="var(--text)" textLength="24" lengthAdjust="spacingAndGlyphs">Publik</text></g></g><g systemLanguage="ga"><g transform="translate(308.74,16.32)"><rect width="40" height="16" rx="8" ry="8" fill="transparent" stroke="var(--border)"/><text x="8.0" y="12" font-size="9.182599999999999" fill="var(--text)" textLength="24" lengthAdjust="spacingAndGlyphs">Poiblí</text></g></g><g systemLanguage="it"><g transform="translate(308.74,16.32)"><rect width="40" height="16" rx="8" ry="8" fill="transparent" stroke="var(--border)"/><text x="8.0" y="12" font-size="9.182599999999999" fill="var(--text)" textLength="24" lengthAdjust="spacingAndGlyphs">Pubblico</text></g></g><g systemLanguage="ja"><g transform="translate(308.74,16.32)"><rect width="40" height="16" rx="8" ry="8" fill="transparent" stroke="var(--border)"/><text x="8.0" y="12" font-size="9.182599999999999" fill="var(--text)" textLength="24" lengthAdjust="spacingAndGlyphs">公共</text></g></g><g systemLanguage="jw"><g transform="translate(308.74,16.32)"><rect width="40" height="16" rx="8" ry="8" fill="transparent" stroke="var(--border)"/><text x="8.0" y="12" font-size="9.182599999999999" fill="var(--text)" textLength="24" lengthAdjust="spacingAndGlyphs">Umum</text></g></g><g systemLanguage="kn"><g transform="translate(308.74,16.32)"><rect width="40" height="16" rx="8" ry="8" fill="transparent" stroke="var(--border)"/><text x="8.0" y="12" font-size="9.182599999999999" fill="var(--text)" textLength="24" lengthAdjust="spacingAndGlyphs">ಸಾರ್ವಜನಿಕ</text></g></g><g systemLanguage="kk"><g transform="translate(308.74,16.32)"><rect width="40" height="16" rx="8" ry="8" fill="transparent" stroke="var(--border)"/><text x="8.0" y="12" font-size="9.182599999999999" fill="var(--text)" textLength="24" lengthAdjust="spacingAndGlyphs">Қоғамдық</text></g></g><g systemLanguage="km"><g transform="translate(308.74,16.32)"><rect width="40" height="16" rx="8" ry="8" fill="transparent" stroke="var(--border)"/><text x="8.0" y="12" font-size="9.182599999999999" fill="var(--text)" textLength="24" lengthAdjust="spacingAndGlyphs">ចាសាធារនៈ</text></g></g><g systemLanguage="rw"><g transform="translate(308.74,16.32)"><rect width="40" height="16" rx="8" ry="8" fill="transparent" stroke="var(--border)"/><text x="8.0" y="12" font-size="9.182599999999999" fill="var(--text)" textLength="24" lengthAdjust="spacingAndGlyphs">Rubanda</text></g></g><g systemLanguage="gom"><g transform="translate(308.74,16.32)"><rect width="40" height="16" rx="8" ry="8" fill="transparent" stroke="var(--border)"/><text x="8.0" y="12" font-size="9.182599999999999" fill="var(--text)" textLength="24" lengthAdjust="spacingAndGlyphs">भौशीक</text></g></g><g systemLanguage="ko"><g transform="translate(308.74,16.32)"><rect width="40" height="16" rx="8" ry="8" fill="transparent" stroke="var(--border)"/><text x="8.0" y="12" font-size="9.182599999999999" fill="var(--text)" textLength="24" lengthAdjust="spacingAndGlyphs">공공의</text></g></g><g systemLanguage="kri"><g transform="translate(308.74,16.32)"><rect width="40" height="16" rx="8" ry="8" fill="transparent" stroke="var(--border)"/><text x="8.0" y="12" font-size="9.182599999999999" fill="var(--text)" textLength="24" lengthAdjust="spacingAndGlyphs">Pɔblik</text></g></g><g systemLanguage="ku"><g transform="translate(308.74,16.32)"><rect width="40" height="16" rx="8" ry="8" fill="transparent" stroke="var(--border)"/><text x="8.0" y="12" font-size="9.182599999999999" fill="var(--text)" textLength="24" lengthAdjust="spacingAndGlyphs">Alenî</text></g></g><g systemLanguage="ckb"><g transform="translate(308.74,16.32)"><rect width="40" height="16" rx="8" ry="8" fill="transparent" stroke="var(--border)"/><text x="8.0" y="12" font-size="9.182599999999999" fill="var(--text)" textLength="24" lengthAdjust="spacingAndGlyphs">گشتی</text></g></g><g systemLanguage="ky"><g transform="translate(308.74,16.32)"><rect width="40" height="16" rx="8" ry="8" fill="transparent" stroke="var(--border)"/><text x="8.0" y="12" font-size="9.182599999999999" fill="var(--text)" textLength="24" lengthAdjust="spacingAndGlyphs">Коомдук</text></g></g><g systemLanguage="lo"><g transform="translate(308.74,16.32)"><rect width="40" height="16" rx="8" ry="8" fill="transparent" stroke="var(--border)"/><text x="8.0" y="12" font-size="9.182599999999999" fill="var(--text)" textLength="24" lengthAdjust="spacingAndGlyphs">ສາທາລະນະ</text></g></g><g systemLanguage="la"><g transform="translate(308.74,16.32)"><rect width="40" height="16" rx="8" ry="8" fill="transparent" stroke="var(--border)"/><text x="8.0" y="12" font-size="9.182599999999999" fill="var(--text)" textLength="24" lengthAdjust="spacingAndGlyphs">Publica</text></g></g><g systemLanguage="lv"><g transform="translate(308.74,16.32)"><rect width="40" height="16" rx="8" ry="8" fill="transparent" stroke="var(--border)"/><text x="8.0" y="12" font-size="9.182599999999999" fill="var(--text)" textLength="24" lengthAdjust="spacingAndGlyphs">Publisks</text></g></g><g systemLanguage="ln"><g transform="translate(308.74,16.32)"><rect width="40" height="16" rx="8" ry="8" fill="transparent" stroke="var(--border)"/><text x="8.0" y="12" font-size="9.182599999999999" fill="var(--text)" textLength="24" lengthAdjust="spacingAndGlyphs">Ya bato nyonso</text></g></g><g systemLanguage="lt"><g transform="translate(308.74,16.32)"><rect width="40" height="16" rx="8" ry="8" fill="transparent" stroke="var(--border)"/><text x="8.0" y="12" font-size="9.182599999999999" fill="var(--text)" textLength="24" lengthAdjust="spacingAndGlyphs">Viešas</text></g></g><g systemLanguage="lg"><g transform="translate(308.74,16.32)"><rect width="40" height="16" rx="8" ry="8" fill="transparent" stroke="var(--border)"/><text x="8.0" y="12" font-size="9.182599999999999" fill="var(--text)" textLength="24" lengthAdjust="spacingAndGlyphs">Mu lujjudde</text></g></g><g systemLanguage="lb"><g transform="translate(308.74,16.32)"><rect width="40" height="16" rx="8" ry="8" fill="transparent" stroke="var(--border)"/><text x="8.0" y="12" font-size="9.182599999999999" fill="var(--text)" textLength="24" lengthAdjust="spacingAndGlyphs">Ëffentlech</text></g></g><g systemLanguage="mk"><g transform="translate(308.74,16.32)"><rect width="40" height="16" rx="8" ry="8" fill="transparent" stroke="var(--border)"/><text x="8.0" y="12" font-size="9.182599999999999" fill="var(--text)" textLength="24" lengthAdjust="spacingAndGlyphs">Јавно</text></g></g><g systemLanguage="mai"><g transform="translate(308.74,16.32)"><rect width="40" height="16" rx="8" ry="8" fill="transparent" stroke="var(--border)"/><text x="8.0" y="12" font-size="9.182599999999999" fill="var(--text)" textLength="24" lengthAdjust="spacingAndGlyphs">सार्वजनिक</text></g></g><g systemLanguage="mg"><g transform="translate(308.74,16.32)"><rect width="40" height="16" rx="8" ry="8" fill="transparent" stroke="var(--border)"/><text x="8.0" y="12" font-size="9.182599999999999" fill="var(--text)" textLength="24" lengthAdjust="spacingAndGlyphs">-bahoaka</text></g></g><g systemLanguage="ms"><g transform="translate(308.74,16.32)"><rect width="40" height="16" rx="8" ry="8" fill="transparent" stroke="var(--border)"/><text x="8.0" y="12" font-size="9.182599999999999" fill="var(--text)" textLength="24" lengthAdjust="spacingAndGlyphs">Awam</text></g></g><g systemLanguage="ml"><g transform="translate(308.74,16.32)"><rect width="40" height="16" rx="8" ry="8" fill="transparent" stroke="var(--border)"/><text x="8.0" y="12" font-size="9.182599999999999" fill="var(--text)" textLength="24" lengthAdjust="spacingAndGlyphs">പൊതു</text></g></g><g systemLanguage="mt"><g transform="translate(308.74,16.32)"><rect width="40" height="16" rx="8" ry="8" fill="transparent" stroke="var(--border)"/><text x="8.0" y="12" font-size="9.182599999999999" fill="var(--text)" textLength="24" lengthAdjust="spacingAndGlyphs">Pubbliku</text></g></g><g systemLanguage="mi"><g transform="translate(308.74,16.32)"><rect width="40" height="16" rx="8" ry="8" fill="transparent" stroke="var(--border)"/><text x="8.0" y="12" font-size="9.182599999999999" fill="var(--text)" textLength="24" lengthAdjust="spacingAndGlyphs">Tūmatanui</text></g></g><g systemLanguage="mr"><g transform="translate(308.74,16.32)"><rect width="40" height="16" rx="8" ry="8" fill="transparent" stroke="var(--border)"/><text x="8.0" y="12" font-size="9.182599999999999" fill="var(--text)" textLength="24" lengthAdjust="spacingAndGlyphs">सार्वजनिक</text></g></g><g systemLanguage="mni-Mtei"><g transform="translate(308.74,16.32)"><rect width="40" height="16" rx="8" ry="8" fill="transparent" stroke="var(--border)"/><text x="8.0" y="12" font-size="9.182599999999999" fill="var(--text)" textLength="24" lengthAdjust="spacingAndGlyphs">ꯃꯤꯌꯥꯝ</text></g></g><g systemLanguage="lus"><g transform="translate(308.74,16.32)"><rect width="40" height="16" rx="8" ry="8" fill="transparent" stroke="var(--border)"/><text x="8.0" y="12" font-size="9.182599999999999" fill="var(--text)" textLength="24" lengthAdjust="spacingAndGlyphs">Vantlang</text></g></g><g systemLanguage="mn"><g transform="translate(308.74,16.32)"><rect width="40" height="16" rx="8" ry="8" fill="transparent" stroke="var(--border)"/><text x="8.0" y="12" font-size="9.182599999999999" fill="var(--text)" textLength="24" lengthAdjust="spacingAndGlyphs">Олон нийтийн</text></g></g><g systemLanguage="my"><g transform="translate(308.74,16.32)"><rect width="40" height="16" rx="8" ry="8" fill="transparent" stroke="var(--border)"/><text x="8.0" y="12" font-size="9.182599999999999" fill="var(--text)" textLength="24" lengthAdjust="spacingAndGlyphs">ပြည်သူပြည်သားနျင့်ဆိုင်သော</text></g></g><g systemLanguage="ne"><g transform="translate(308.74,16.32)"><rect width="40" height="16" rx="8" ry="8" fill="transparent" stroke="var(--border)"/><text x="8.0" y="12" font-size="9.182599999999999" fill="var(--text)" textLength="24" lengthAdjust="spacingAndGlyphs">सार्वजनिक</text></g></g><g systemLanguage="no"><g transform="translate(308.74,16.32)"><rect width="40" height="16" rx="8" ry="8" fill="transparent" stroke="var(--border)"/><text x="8.0" y="12" font-size="9.182599999999999" fill="var(--text)" textLength="24" lengthAdjust="spacingAndGlyphs">Offentlig</text></g></g><g systemLanguage="or"><g transform="translate(308.74,16.32)"><rect width="40" height="16" rx="8" ry="8" fill="transparent" stroke="var(--border)"/><text x="8.0" y="12" font-size="9.182599999999999" fill="var(--text)" textLength="24" lengthAdjust="spacingAndGlyphs">ଜନସାଧାରଣ |</text></g></g><g systemLanguage="om"><g transform="translate(308.74,16.32)"><rect width="40" height="16" rx="8" ry="8" fill="transparent" stroke="var(--border)"/><text x="8.0" y="12" font-size="9.182599999999999" fill="var(--text)" textLength="24" lengthAdjust="spacingAndGlyphs">Uummata</text></g></g><g systemLanguage="ps"><g transform="translate(308.74,16.32)"><rect width="40" height="16" rx="8" ry="8" fill="transparent" stroke="var(--border)"/><text x="8.0" y="12" font-size="9.182599999999999" fill="var(--text)" textLength="24" lengthAdjust="spacingAndGlyphs">عامه</text></g></g><g systemLanguage="fa"><g transform="translate(308.74,16.32)"><rect width="40" height="16" rx="8" ry="8" fill="transparent" stroke="var(--border)"/><text x="8.0" y="12" font-size="9.182599999999999" fill="var(--text)" textLength="24" lengthAdjust="spacingAndGlyphs">عمومی</text></g></g><g systemLanguage="pl"><g transform="translate(308.74,16.32)"><rect width="40" height="16" rx="8" ry="8" fill="transparent" stroke="var(--border)"/><text x="8.0" y="12" font-size="9.182599999999999" fill="var(--text)" textLength="24" lengthAdjust="spacingAndGlyphs">Publiczny</text></g></g><g systemLanguage="pt"><g transform="translate(308.74,16.32)"><rect width="40" height="16" rx="8" ry="8" fill="transparent" stroke="var(--border)"/><text x="8.0" y="12" font-size="9.182599999999999" fill="var(--text)" textLength="24" lengthAdjust="spacingAndGlyphs">Público</text></g></g><g systemLanguage="pa"><g transform="translate(308.74,16.32)"><rect width="40" height="16" rx="8" ry="8" fill="transparent" stroke="var(--border)"/><text x="8.0" y="12" font-size="9.182599999999999" fill="var(--text)" textLength="24" lengthAdjust="spacingAndGlyphs">ਜਨਤਕ</text></g></g><g systemLanguage="qu"><g transform="translate(308.74,16.32)"><rect width="40" height="16" rx="8" ry="8" fill="transparent" stroke="var(--border)"/><text x="8.0" y="12" font-size="9.182599999999999" fill="var(--text)" textLength="24" lengthAdjust="spacingAndGlyphs">Runapaq</text></g></g><g systemLanguage="ro"><g transform="translate(308.74,16.32)"><rect width="40" height="16" rx="8" ry="8" fill="transparent" stroke="var(--border)"/><text x="8.0" y="12" font-size="9.182599999999999" fill="var(--text)" textLength="24" lengthAdjust="spacingAndGlyphs">Public</text></g></g><g systemLanguage="ru"><g transform="translate(308.74,16.32)"><rect width="40" height="16" rx="8" ry="8" fill="transparent" stroke="var(--border)"/><text x="8.0" y="12" font-size="9.182599999999999" fill="var(--text)" textLength="24" lengthAdjust="spacingAndGlyphs">Общественный</text></g></g><g systemLanguage="sm"><g transform="translate(308.74,16.32)"><rect width="40" height="16" rx="8" ry="8" fill="transparent" stroke="var(--border)"/><text x="8.0" y="12" font-size="9.182599999999999" fill="var(--text)" textLength="24" lengthAdjust="spacingAndGlyphs">Tagata lautele</text></g></g><g systemLanguage="sa"><g transform="translate(308.74,16.32)"><rect width="40" height="16" rx="8" ry="8" fill="transparent" stroke="var(--border)"/><text x="8.0" y="12" font-size="9.182599999999999" fill="var(--text)" textLength="24" lengthAdjust="spacingAndGlyphs">सार्वजनिक</text></g></g><g systemLanguage="gd"><g transform="translate(308.74,16.32)"><rect width="40" height="16" rx="8" ry="8" fill="transparent" stroke="var(--border)"/><text x="8.0" y="12" font-size="9.182599999999999" fill="var(--text)" textLength="24" lengthAdjust="spacingAndGlyphs">Poblach</text></g></g><g systemLanguage="nso"><g transform="translate(308.74,16.32)"><rect width="40" height="16" rx="8" ry="8" fill="transparent" stroke="var(--border)"/><text x="8.0" y="12" font-size="9.182599999999999" fill="var(--text)" textLength="24" lengthAdjust="spacingAndGlyphs">Setšhaba</text></g></g><g systemLanguage="sr"><g transform="translate(308.74,16.32)"><rect width="40" height="16" rx="8" ry="8" fill="transparent" stroke="var(--border)"/><text x="8.0" y="12" font-size="9.182599999999999" fill="var(--text)" textLength="24" lengthAdjust="spacingAndGlyphs">Јавно</text></g></g><g systemLanguage="st"><g transform="translate(308.74,16.32)"><rect width="40" height="16" rx="8" ry="8" fill="transparent" stroke="var(--border)"/><text x="8.0" y="12" font-size="9.182599999999999" fill="var(--text)" textLength="24" lengthAdjust="spacingAndGlyphs">Sechaba</text></g></g><g systemLanguage="sn"><g transform="translate(308.74,16.32)"><rect width="40" height="16" rx="8" ry="8" fill="transparent" stroke="var(--border)"/><text x="8.0" y="12" font-size="9.182599999999999" fill="var(--text)" textLength="24" lengthAdjust="spacingAndGlyphs">Ruzhinji</text></g></g><g systemLanguage="sd"><g transform="translate(308.74,16.32)"><rect width="40" height="16" rx="8" ry="8" fill="transparent" stroke="var(--border)"/><text x="8.0" y="12" font-size="9.182599999999999" fill="var(--text)" textLength="24" lengthAdjust="spacingAndGlyphs">عوامي</text></g></g><g systemLanguage="si"><g transform="translate(308.74,16.32)"><rect width="40" height="16" rx="8" ry="8" fill="transparent" stroke="var(--border)"/><text x="8.0" y="12" font-size="9.182599999999999" fill="var(--text)" textLength="24" lengthAdjust="spacingAndGlyphs">පොදු</text></g></g><g systemLanguage="sk"><g transform="translate(308.74,16.32)"><rect width="40" height="16" rx="8" ry="8" fill="transparent" stroke="var(--border)"/><text x="8.0" y="12" font-size="9.182599999999999" fill="var(--text)" textLength="24" lengthAdjust="spacingAndGlyphs">Verejné</text></g></g><g systemLanguage="sl"><g transform="translate(308.74,16.32)"><rect width="40" height="16" rx="8" ry="8" fill="transparent" stroke="var(--border)"/><text x="8.0" y="12" font-size="9.182599999999999" fill="var(--text)" textLength="24" lengthAdjust="spacingAndGlyphs">Javno</text></g></g><g systemLanguage="so"><g transform="translate(308.74,16.32)"><rect width="40" height="16" rx="8" ry="8" fill="transparent" stroke="var(--border)"/><text x="8.0" y="12" font-size="9.182599999999999" fill="var(--text)" textLength="24" lengthAdjust="spacingAndGlyphs">Waqaf ah</text></g></g><g systemLanguage="es"><g transform="translate(308.74,16.32)"><rect width="40" height="16" rx="8" ry="8" fill="transparent" stroke="var(--border)"/><text x="8.0" y="12" font-size="9.182599999999999" fill="var(--text)" textLength="24" lengthAdjust="spacingAndGlyphs">Público</text></g></g><g systemLanguage="su"><g transform="translate(308.74,16.32)"><rect width="40" height="16" rx="8" ry="8" fill="transparent" stroke="var(--border)"/><text x="8.0" y="12" font-size="9.182599999999999" fill="var(--text)" textLength="24" lengthAdjust="spacingAndGlyphs">Umum</text></g></g><g systemLanguage="sw"><g transform="translate(308.74,16.32)"><rect width="40" height="16" rx="8" ry="8" fill="transparent" stroke="var(--border)"/><text x="8.0" y="12" font-size="9.182599999999999" fill="var(--text)" textLength="24" lengthAdjust="spacingAndGlyphs">Umma</text></g></g><g systemLanguage="sv"><g transform="translate(308.74,16.32)"><rect width="40" height="16" rx="8" ry="8" fill="transparent" stroke="var(--border)"/><text x="8.0" y="12" font-size="9.182599999999999" fill="var(--text)" textLength="24" lengthAdjust="spacingAndGlyphs">Offentlig</text></g></g><g systemLanguage="tg"><g transform="translate(308.74,16.32)"><rect width="40" height="16" rx="8" ry="8" fill="transparent" stroke="var(--border)"/><text x="8.0" y="12" font-size="9.182599999999999" fill="var(--text)" textLength="24" lengthAdjust="spacingAndGlyphs">Умумӣ</text></g></g><g systemLanguage="ta"><g transform="translate(308.74,16.32)"><rect width="40" height="16" rx="8" ry="8" fill="transparent" stroke="var(--border)"/><text x="8.0" y="12" font-size="9.182599999999999" fill="var(--text)" textLength="24" lengthAdjust="spacingAndGlyphs">பொது</text></g></g><g systemLanguage="tt"><g transform="translate(308.74,16.32)"><rect width="40" height="16" rx="8" ry="8" fill="transparent" stroke="var(--border)"/><text x="8.0" y="12" font-size="9.182599999999999" fill="var(--text)" textLength="24" lengthAdjust="spacingAndGlyphs">Халык</text></g></g><g systemLanguage="te"><g transform="translate(308.74,16.32)"><rect width="40" height="16" rx="8" ry="8" fill="transparent" stroke="var(--border)"/><text x="8.0" y="12" font-size="9.182599999999999" fill="var(--text)" textLength="24" lengthAdjust="spacingAndGlyphs">పబ్లిక్</text></g></g><g systemLanguage="th"><g transform="translate(308.74,16.32)"><rect width="40" height="16" rx="8" ry="8" fill="transparent" stroke="var(--border)"/><text x="8.0" y="12" font-size="9.182599999999999" fill="var(--text)" textLength="24" lengthAdjust="spacingAndGlyphs">สาธารณะ</text></g></g><g systemLanguage="ti"><g transform="translate(308.74,16.32)"><rect width="40" height="16" rx="8" ry="8" fill="transparent" stroke="var(--border)"/><text x="8.0" y="12" font-size="9.182599999999999" fill="var(--text)" textLength="24" lengthAdjust="spacingAndGlyphs">ህዝባዊ</text></g></g><g systemLanguage="ts"><g transform="translate(308.74,16.32)"><rect width="40" height="16" rx="8" ry="8" fill="transparent" stroke="var(--border)"/><text x="8.0" y="12" font-size="9.182599999999999" fill="var(--text)" textLength="24" lengthAdjust="spacingAndGlyphs">Rivaleni</text></g></g><g systemLanguage="tr"><g transform="translate(308.74,16.32)"><rect width="40" height="16" rx="8" ry="8" fill="transparent" stroke="var(--border)"/><text x="8.0" y="12" font-size="9.182599999999999" fill="var(--text)" textLength="24" lengthAdjust="spacingAndGlyphs">Halk</text></g></g><g systemLanguage="tk"><g transform="translate(308.74,16.32)"><rect width="40" height="16" rx="8" ry="8" fill="transparent" stroke="var(--border)"/><text x="8.0" y="12" font-size="9.182599999999999" fill="var(--text)" textLength="24" lengthAdjust="spacingAndGlyphs">Köpçülik</text></g></g><g systemLanguage="ak"><g transform="translate(308.74,16.32)"><rect width="40" height="16" rx="8" ry="8" fill="transparent" stroke="var(--border)"/><text x="8.0" y="12" font-size="9.182599999999999" fill="var(--text)" textLength="24" lengthAdjust="spacingAndGlyphs">Dwam</text></g></g><g systemLanguage="uk"><g transform="translate(308.74,16.32)"><rect width="40" height="16" rx="8" ry="8" fill="transparent" stroke="var(--border)"/><text x="8.0" y="12" font-size="9.182599999999999" fill="var(--text)" textLength="24" lengthAdjust="spacingAndGlyphs">Громадський</text></g></g><g systemLanguage="ur"><g transform="translate(308.74,16.32)"><rect width="40" height="16" rx="8" ry="8" fill="transparent" stroke="var(--border)"/><text x="8.0" y="12" font-size="9.182599999999999" fill="var(--text)" textLength="24" lengthAdjust="spacingAndGlyphs">عوامی</text></g></g><g systemLanguage="ug"><g transform="translate(308.74,16.32)"><rect width="40" height="16" rx="8" ry="8" fill="transparent" stroke="var(--border)"/><text x="8.0" y="12" font-size="9.182599999999999" fill="var(--text)" textLength="24" lengthAdjust="spacingAndGlyphs">جامائەت</text></g></g><g systemLanguage="uz"><g transform="translate(308.74,16.32)"><rect width="40" height="16" rx="8" ry="8" fill="transparent" stroke="var(--border)"/><text x="8.0" y="12" font-size="9.182599999999999" fill="var(--text)" textLength="24" lengthAdjust="spacingAndGlyphs">Ommaviy</text></g></g><g systemLanguage="vi"><g transform="translate(308.74,16.32)"><rect width="40" height="16" rx="8" ry="8" fill="transparent" stroke="var(--border)"/><text x="8.0" y="12" font-size="9.182599999999999" fill="var(--text)" textLength="24" lengthAdjust="spacingAndGlyphs">Công cộng</text></g></g><g systemLanguage="cy"><g transform="translate(308.74,16.32)"><rect width="40" height="16" rx="8" ry="8" fill="transparent" stroke="var(--border)"/><text x="8.0" y="12" font-size="9.182599999999999" fill="var(--text)" textLength="24" lengthAdjust="spacingAndGlyphs">Cyhoeddus</text></g></g><g systemLanguage="xh"><g transform="translate(308.74,16.32)"><rect width="40" height="16" rx="8" ry="8" fill="transparent" stroke="var(--border)"/><text x="8.0" y="12" font-size="9.182599999999999" fill="var(--text)" textLength="24" lengthAdjust="spacingAndGlyphs">Esidlangalaleni</text></g></g><g systemLanguage="yi"><g transform="translate(308.74,16.32)"><rect width="40" height="16" rx="8" ry="8" fill="transparent" stroke="var(--border)"/><text x="8.0" y="12" font-size="9.182599999999999" fill="var(--text)" textLength="24" lengthAdjust="spacingAndGlyphs">ציבור</text></g></g><g systemLanguage="yo"><g transform="translate(308.74,16.32)"><rect width="40" height="16" rx="8" ry="8" fill="transparent" stroke="var(--border)"/><text x="8.0" y="12" font-size="9.182599999999999" fill="var(--text)" textLength="24" lengthAdjust="spacingAndGlyphs">Awujọ</text></g></g><g systemLanguage="zu"><g transform="translate(308.74,16.32)"><rect width="40" height="16" rx="8" ry="8" fill="transparent" stroke="var(--border)"/><text x="8.0" y="12" font-size="9.182599999999999" fill="var(--text)" textLength="24" lengthAdjust="spacingAndGlyphs">-Kwabantu bonke</text></g></g><g><g transform="translate(308.74,16.32)"><rect width="40" height="16" rx="8" ry="8" fill="transparent" stroke="var(--border)"/><text x="8.0" y="12" font-size="9.182599999999999" fill="var(--text)" textLength="24" lengthAdjust="spacingAndGlyphs">Public</text></g></g></switch><switch><g systemLanguage="en"><text x="16" y="57.30" font-size="12.181000000000001" fill="var(--text)">CI/CD static UI for Hacktoberfest statistical analysis. Exclusive to</text><text x="16" y="73.74" font-size="12.181000000000001" fill="var(--text)">Hacktoberfest GitHub PRs.</text></g><g systemLanguage="es"><text x="16" y="57.30" font-size="12.181000000000001" fill="var(--text)">UI estática CI/CD para análisis estadístico de Hacktoberfest.</text><text x="16" y="73.74" font-size="12.181000000000001" fill="var(--text)">Exclusivo para las relaciones públicas de Hacktoberfest GitHub.</text></g><g systemLanguage="fr"><text x="16" y="57.30" font-size="12.181000000000001" fill="var(--text)">Interface utilisateur statique CI/CD pour l’analyse statistique du</text><text x="16" y="73.74" font-size="12.181000000000001" fill="var(--text)">Hacktoberfest. Exclusif aux relations publiques GitHub du</text><text x="16" y="90.19" font-size="12.181000000000001" fill="var(--text)">Hacktoberfest.</text></g><g systemLanguage="de"><text x="16" y="57.30" font-size="12.181000000000001" fill="var(--text)">Statische CI/CD-Benutzeroberfläche für die statistische</text><text x="16" y="73.74" font-size="12.181000000000001" fill="var(--text)">Hacktoberfest-Analyse. Exklusiv für Hacktoberfest-GitHub-PRs.</text></g><g systemLanguage="pt"><text x="16" y="57.30" font-size="12.181000000000001" fill="var(--text)">UI estática CI/CD para análise estatística do Hacktoberfest.</text><text x="16" y="73.74" font-size="12.181000000000001" fill="var(--text)">Exclusivo para PRs do GitHub do Hacktoberfest.</text></g><g systemLanguage="ru"><text x="16" y="57.30" font-size="12.181000000000001" fill="var(--text)">Статический пользовательский интерфейс CI/CD для</text><text x="16" y="73.74" font-size="12.181000000000001" fill="var(--text)">статистического анализа Hacktoberfest. Эксклюзивно для</text><text x="16" y="90.19" font-size="12.181000000000001" fill="var(--text)">пиар-сообщений Hacktoberfest на GitHub.</text></g><g systemLanguage="zh-CN"><text x="16" y="57.30" font-size="12.181000000000001" fill="var(--text)">用于 Hacktoberfest 统计分析的 CI/CD 静态 UI。 Hacktoberfest GitHub PR 独家提供。</text></g><g systemLanguage="zh-TW"><text x="16" y="57.30" font-size="12.181000000000001" fill="var(--text)">用於 Hacktoberfest 統計分析的 CI/CD 靜態 UI。 Hacktoberfest GitHub PR 獨家提供。</text></g><g systemLanguage="ja"><text x="16" y="57.30" font-size="12.181000000000001" fill="var(--text)">Hacktoberfest 統計分析用の CI/CD 静的 UI。 Hacktoberfest GitHub PR 限定。</text></g><g systemLanguage="ko"><text x="16" y="57.30" font-size="12.181000000000001" fill="var(--text)">Hacktoberfest 통계 분석을 위한 CI/CD 정적 UI입니다. Hacktoberfest GitHub PR에</text><text x="16" y="73.74" font-size="12.181000000000001" fill="var(--text)">독점 제공됩니다.</text></g><g systemLanguage="ar"><text x="16" y="57.30" font-size="12.181000000000001" fill="var(--text)">واجهة مستخدم ثابتة CI/CD للتحليل الإحصائي Hacktoberfest. حصريًا</text><text x="16" y="73.74" font-size="12.181000000000001" fill="var(--text)">لـ Hacktoberfest GitHub PRs.</text></g><g systemLanguage="hi"><text x="16" y="57.30" font-size="12.181000000000001" fill="var(--text)">हैकटेबरफेस्ट सांख्यिकीय विश्लेषण के लिए सीआई/सीडी स्थिर यूआई।</text><text x="16" y="73.74" font-size="12.181000000000001" fill="var(--text)">Hacktoberfest GitHub PRs के लिए विशेष।</text></g><g systemLanguage="it"><text x="16" y="57.30" font-size="12.181000000000001" fill="var(--text)">Interfaccia utente statica CI/CD per l&apos;analisi statistica</text><text x="16" y="73.74" font-size="12.181000000000001" fill="var(--text)">dell&apos;Hacktoberfest. In esclusiva per i PR GitHub di Hacktoberfest.</text></g><g systemLanguage="tr"><text x="16" y="57.30" font-size="12.181000000000001" fill="var(--text)">Hacktoberfest istatistiksel analizi için CI/CD statik kullanıcı</text><text x="16" y="73.74" font-size="12.181000000000001" fill="var(--text)">arayüzü. Hacktoberfest GitHub Halkla İlişkiler&apos;e özel.</text></g><g systemLanguage="nl"><text x="16" y="57.30" font-size="12.181000000000001" fill="var(--text)">CI/CD statische gebruikersinterface voor statistische analyse van</text><text x="16" y="73.74" font-size="12.181000000000001" fill="var(--text)">Hacktoberfest. Exclusief voor Hacktoberfest GitHub PR&apos;s.</text></g><g systemLanguage="sv"><text x="16" y="57.30" font-size="12.181000000000001" fill="var(--text)">CI/CD statisk UI för Hacktoberfest statistisk analys. Exklusivt för</text><text x="16" y="73.74" font-size="12.181000000000001" fill="var(--text)">Hacktoberfest GitHub PRs.</text></g><g systemLanguage="pl"><text x="16" y="57.30" font-size="12.181000000000001" fill="var(--text)">Statyczny interfejs CI/CD do analizy statystycznej Hacktoberfest.</text><text x="16" y="73.74" font-size="12.181000000000001" fill="var(--text)">Wyłącznie dla PR Hacktoberfest GitHub.</text></g><g systemLanguage="id"><text x="16" y="57.30" font-size="12.181000000000001" fill="var(--text)">UI statis CI/CD untuk analisis statistik Hacktoberfest. Eksklusif</text><text x="16" y="73.74" font-size="12.181000000000001" fill="var(--text)">untuk PR GitHub Hacktoberfest.</text></g><g systemLanguage="th"><text x="16" y="57.30" font-size="12.181000000000001" fill="var(--text)">UI แบบคงที่ของ CI/CD สำหรับการวิเคราะห์ทางสถิติของ</text><text x="16" y="73.74" font-size="12.181000000000001" fill="var(--text)">Hacktoberfest สิทธิพิเศษสำหรับ Hacktoberfest GitHub PRs</text></g><g systemLanguage="vi"><text x="16" y="57.30" font-size="12.181000000000001" fill="var(--text)">Giao diện người dùng tĩnh CI/CD để phân tích thống kê</text><text x="16" y="73.74" font-size="12.181000000000001" fill="var(--text)">Hacktoberfest. Dành riêng cho PR Hacktoberfest GitHub.</text></g><g systemLanguage="uk"><text x="16" y="57.30" font-size="12.181000000000001" fill="var(--text)">Статичний інтерфейс користувача CI/CD для статистичного аналізу</text><text x="16" y="73.74" font-size="12.181000000000001" fill="var(--text)">Hacktoberfest. Ексклюзивно для PR-агентів Hacktoberfest GitHub.</text></g><g><text x="16" y="57.30" font-size="12.181000000000001" fill="var(--text)">CI/CD static UI for Hacktoberfest statistical analysis. Exclusive to</text><text x="16" y="73.74" font-size="12.181000000000001" fill="var(--text)">Hacktoberfest GitHub PRs.</text></g></switch><a href="https://github.com/Hacktoberfest-Stats/hacktoberfest-stats/stargazers" target="_blank"></a><a href="https://github.com/Hacktoberfest-Stats/hacktoberfest-stats/forks" target="_blank"></a><a href="https://github.com/Hacktoberfest-Stats/hacktoberfest-stats/issues" target="_blank"></a><a href="https://github.com/Hacktoberfest-Stats/hacktoberfest-stats/pulls" target="_blank"></a><a href="https://github.com/Hacktoberfest-Stats/hacktoberfest-stats/graphs/contributors" target="_blank"><g><rect x="16.00" y="105.82" width="22.46" height="12.18" fill="transparent" pointer-events="all" style="cursor:pointer;" /><g transform="translate(16.00,107.65) scale(0.5374)"><path d="M12 2.5a5.5 5.5 0 0 1 3.096 10.047 9.005 9.005 0 0 1 5.9 8.181.75.75 0 1 1-1.499.044 7.5 7.5 0 0 0-14.993 0 .75.75 0 0 1-1.5-.045 9.005 9.005 0 0 1 5.9-8.18A5.5 5.5 0 0 1 12 2.5ZM8 8a4 4 0 1 0 8 0 4 4 0 0 0-8 0Z" fill="var(--text)" stroke="none" stroke-width="0" fill-rule="evenodd"/></g><text x="32.00" y="118.00" font-size="12.181000000000001" fill="var(--text)">1</text></g></a>
          </g>
          <rect 
            x="0.5" 
            y="0.5" 
            width="411" 
            height="133" 
            rx="6" 
            ry="6" 
            fill="none" 
            stroke="var(--border)"
          />
        </svg>
        