<?xml version="1.0" encoding="UTF-8"?>
        <svg 
          width="412" 
          height="134" 
          viewBox="0 0 412 134" 
          xmlns="http://www.w3.org/2000/svg" 
          role="img" 
          aria-label="Hacktoberfest-Stats/hacktoberfest-stats"
        >
          <title>Hacktoberfest-Stats/hacktoberfest-stats</title>
          <style>:root {
          --canvas: #ffffff; --border: #d1d9e0; 
          --text: #59636e; --danger: #9a6700; --link: #0969da;
        }@media (prefers-color-scheme: dark) { :root {
          --canvas: #212830; --border: #3d444d; 
          --text: #9198a1; --danger: #c69026; --link: #478be6;
        } }text { 
              font-family: -apple-system, 
              BlinkMacSystemFont, 
              "Segoe UI", 
              "Noto Sans", 
              Helvetica, 
              Arial, 
              sans-serif; 
            } 
          </style>
          <defs><clipPath id="clip"><rect 
            x="0" 
            y="0" 
            width="412" 
            height="134" 
            rx="6" 
            ry="6"
          /></clipPath></defs>
          <g clip-path="url(#clip)">
            <rect 
              x="0" 
              y="0" 
              width="412" 
              height="134" 
              fill="var(--canvas)" 
              stroke="var(--border)"
            />
            <g transform="translate(16.00,17.97) scale(0.9412)"><path d="M2 2.5A2.5 2.5 0 0 1 4.5 0h8.75a.75.75 0 0 1 .75.75v12.5a.75.75 0 0 1-.75.75h-2.5a.75.75 0 0 1 0-1.5h1.75v-2h-8a1 1 0 0 0-.714 1.7.75.75 0 1 1-1.072 1.05A2.495 2.495 0 0 1 2 11.5Zm10.5-1h-8a1 1 0 0 0-1 1v6.708A2.486 2.486 0 0 1 4.5 9h8ZM5 12.25a.25.25 0 0 1 .25-.25h3.5a.25.25 0 0 1 .25.25v3.25a.25.25 0 0 1-.4.2l-1.45-1.087a.249.249 0 0 0-.3 0L5.4 15.7a.25.25 0 0 1-.4-.2Z" fill="var(--text)" stroke="none" stroke-width="0" fill-rule="evenodd"/></g>
        <a href="https://github.com/Hacktoberfest-Stats/hacktoberfest-stats" target="_blank"><text x="33" y="29.118000000000002" font-size="13.118" fill="var(--link)"><tspan font-weight="500">Hacktoberfest-Stats/</tspan><tspan font-weight="700">hacktoberfest-stats</tspan></text></a><switch><g systemLanguage="ro"><g transform="translate(308.74,16.32)"><rect width="40" height="16" rx="8" ry="8" fill="var(--canvas)" stroke="var(--border)"/><text x="8.0" y="12" font-size="9.182599999999999" fill="var(--text)" textLength="24" lengthAdjust="spacingAndGlyphs">Public</text></g></g><g systemLanguage="en"><g transform="translate(308.74,16.32)"><rect width="40" height="16" rx="8" ry="8" fill="var(--canvas)" stroke="var(--border)"/><text x="8.0" y="12" font-size="9.182599999999999" fill="var(--text)" textLength="24" lengthAdjust="spacingAndGlyphs">Public</text></g></g><g systemLanguage="es"><g transform="translate(308.74,16.32)"><rect width="40" height="16" rx="8" ry="8" fill="var(--canvas)" stroke="var(--border)"/><text x="8.0" y="12" font-size="9.182599999999999" fill="var(--text)" textLength="24" lengthAdjust="spacingAndGlyphs">Público</text></g></g><g systemLanguage="fr"><g transform="translate(308.74,16.32)"><rect width="40" height="16" rx="8" ry="8" fill="var(--canvas)" stroke="var(--border)"/><text x="8.0" y="12" font-size="9.182599999999999" fill="var(--text)" textLength="24" lengthAdjust="spacingAndGlyphs">Publique</text></g></g><g systemLanguage="de"><g transform="translate(308.74,16.32)"><rect width="40" height="16" rx="8" ry="8" fill="var(--canvas)" stroke="var(--border)"/><text x="8.0" y="12" font-size="9.182599999999999" fill="var(--text)" textLength="24" lengthAdjust="spacingAndGlyphs">Öffentlich</text></g></g><g systemLanguage="pt"><g transform="translate(308.74,16.32)"><rect width="40" height="16" rx="8" ry="8" fill="var(--canvas)" stroke="var(--border)"/><text x="8.0" y="12" font-size="9.182599999999999" fill="var(--text)" textLength="24" lengthAdjust="spacingAndGlyphs">Público</text></g></g><g systemLanguage="ru"><g transform="translate(308.74,16.32)"><rect width="40" height="16" rx="8" ry="8" fill="var(--canvas)" stroke="var(--border)"/><text x="8.0" y="12" font-size="9.182599999999999" fill="var(--text)" textLength="24" lengthAdjust="spacingAndGlyphs">Общественный</text></g></g><g systemLanguage="zh-CN"><g transform="translate(308.74,16.32)"><rect width="40" height="16" rx="8" ry="8" fill="var(--canvas)" stroke="var(--border)"/><text x="8.0" y="12" font-size="9.182599999999999" fill="var(--text)" textLength="24" lengthAdjust="spacingAndGlyphs">民众</text></g></g><g systemLanguage="zh-TW"><g transform="translate(308.74,16.32)"><rect width="40" height="16" rx="8" ry="8" fill="var(--canvas)" stroke="var(--border)"/><text x="8.0" y="12" font-size="9.182599999999999" fill="var(--text)" textLength="24" lengthAdjust="spacingAndGlyphs">民眾</text></g></g><g systemLanguage="ja"><g transform="translate(308.74,16.32)"><rect width="40" height="16" rx="8" ry="8" fill="var(--canvas)" stroke="var(--border)"/><text x="8.0" y="12" font-size="9.182599999999999" fill="var(--text)" textLength="24" lengthAdjust="spacingAndGlyphs">公共</text></g></g><g systemLanguage="ko"><g transform="translate(308.74,16.32)"><rect width="40" height="16" rx="8" ry="8" fill="var(--canvas)" stroke="var(--border)"/><text x="8.0" y="12" font-size="9.182599999999999" fill="var(--text)" textLength="24" lengthAdjust="spacingAndGlyphs">공공의</text></g></g><g systemLanguage="ar"><g transform="translate(308.74,16.32)"><rect width="40" height="16" rx="8" ry="8" fill="var(--canvas)" stroke="var(--border)"/><text x="8.0" y="12" font-size="9.182599999999999" fill="var(--text)" textLength="24" lengthAdjust="spacingAndGlyphs">عام</text></g></g><g systemLanguage="hi"><g transform="translate(308.74,16.32)"><rect width="40" height="16" rx="8" ry="8" fill="var(--canvas)" stroke="var(--border)"/><text x="8.0" y="12" font-size="9.182599999999999" fill="var(--text)" textLength="24" lengthAdjust="spacingAndGlyphs">जनता</text></g></g><g systemLanguage="it"><g transform="translate(308.74,16.32)"><rect width="40" height="16" rx="8" ry="8" fill="var(--canvas)" stroke="var(--border)"/><text x="8.0" y="12" font-size="9.182599999999999" fill="var(--text)" textLength="24" lengthAdjust="spacingAndGlyphs">Pubblico</text></g></g><g systemLanguage="tr"><g transform="translate(308.74,16.32)"><rect width="40" height="16" rx="8" ry="8" fill="var(--canvas)" stroke="var(--border)"/><text x="8.0" y="12" font-size="9.182599999999999" fill="var(--text)" textLength="24" lengthAdjust="spacingAndGlyphs">Halk</text></g></g><g systemLanguage="nl"><g transform="translate(308.74,16.32)"><rect width="40" height="16" rx="8" ry="8" fill="var(--canvas)" stroke="var(--border)"/><text x="8.0" y="12" font-size="9.182599999999999" fill="var(--text)" textLength="24" lengthAdjust="spacingAndGlyphs">Openbaar</text></g></g><g systemLanguage="sv"><g transform="translate(308.74,16.32)"><rect width="40" height="16" rx="8" ry="8" fill="var(--canvas)" stroke="var(--border)"/><text x="8.0" y="12" font-size="9.182599999999999" fill="var(--text)" textLength="24" lengthAdjust="spacingAndGlyphs">Offentlig</text></g></g><g systemLanguage="pl"><g transform="translate(308.74,16.32)"><rect width="40" height="16" rx="8" ry="8" fill="var(--canvas)" stroke="var(--border)"/><text x="8.0" y="12" font-size="9.182599999999999" fill="var(--text)" textLength="24" lengthAdjust="spacingAndGlyphs">Publiczny</text></g></g><g systemLanguage="id"><g transform="translate(308.74,16.32)"><rect width="40" height="16" rx="8" ry="8" fill="var(--canvas)" stroke="var(--border)"/><text x="8.0" y="12" font-size="9.182599999999999" fill="var(--text)" textLength="24" lengthAdjust="spacingAndGlyphs">Publik</text></g></g><g systemLanguage="th"><g transform="translate(308.74,16.32)"><rect width="40" height="16" rx="8" ry="8" fill="var(--canvas)" stroke="var(--border)"/><text x="8.0" y="12" font-size="9.182599999999999" fill="var(--text)" textLength="24" lengthAdjust="spacingAndGlyphs">สาธารณะ</text></g></g><g systemLanguage="vi"><g transform="translate(308.74,16.32)"><rect width="40" height="16" rx="8" ry="8" fill="var(--canvas)" stroke="var(--border)"/><text x="8.0" y="12" font-size="9.182599999999999" fill="var(--text)" textLength="24" lengthAdjust="spacingAndGlyphs">Công cộng</text></g></g><g systemLanguage="uk"><g transform="translate(308.74,16.32)"><rect width="40" height="16" rx="8" ry="8" fill="var(--canvas)" stroke="var(--border)"/><text x="8.0" y="12" font-size="9.182599999999999" fill="var(--text)" textLength="24" lengthAdjust="spacingAndGlyphs">Громадський</text></g></g><g><g transform="translate(308.74,16.32)"><rect width="40" height="16" rx="8" ry="8" fill="var(--canvas)" stroke="var(--border)"/><text x="8.0" y="12" font-size="9.182599999999999" fill="var(--text)" textLength="24" lengthAdjust="spacingAndGlyphs">Public</text></g></g></switch><switch><g systemLanguage="en"><text x="16" y="57.30" font-size="12.181000000000001" fill="var(--text)">CI/CD static UI for Hacktoberfest statistical analysis. Exclusive to</text><text x="16" y="73.74" font-size="12.181000000000001" fill="var(--text)">Hacktoberfest GitHub PRs.</text></g><g systemLanguage="es"><text x="16" y="57.30" font-size="12.181000000000001" fill="var(--text)">UI estática CI/CD para análisis estadístico de Hacktoberfest.</text><text x="16" y="73.74" font-size="12.181000000000001" fill="var(--text)">Exclusivo para las relaciones públicas de Hacktoberfest GitHub.</text></g><g systemLanguage="fr"><text x="16" y="57.30" font-size="12.181000000000001" fill="var(--text)">Interface utilisateur statique CI/CD pour l’analyse statistique du</text><text x="16" y="73.74" font-size="12.181000000000001" fill="var(--text)">Hacktoberfest. Exclusif aux relations publiques GitHub du</text><text x="16" y="90.19" font-size="12.181000000000001" fill="var(--text)">Hacktoberfest.</text></g><g systemLanguage="de"><text x="16" y="57.30" font-size="12.181000000000001" fill="var(--text)">Statische CI/CD-Benutzeroberfläche für die statistische</text><text x="16" y="73.74" font-size="12.181000000000001" fill="var(--text)">Hacktoberfest-Analyse. Exklusiv für Hacktoberfest-GitHub-PRs.</text></g><g systemLanguage="pt"><text x="16" y="57.30" font-size="12.181000000000001" fill="var(--text)">UI estática CI/CD para análise estatística do Hacktoberfest.</text><text x="16" y="73.74" font-size="12.181000000000001" fill="var(--text)">Exclusivo para PRs do GitHub do Hacktoberfest.</text></g><g systemLanguage="ru"><text x="16" y="57.30" font-size="12.181000000000001" fill="var(--text)">Статический пользовательский интерфейс CI/CD для</text><text x="16" y="73.74" font-size="12.181000000000001" fill="var(--text)">статистического анализа Hacktoberfest. Эксклюзивно для</text><text x="16" y="90.19" font-size="12.181000000000001" fill="var(--text)">пиар-сообщений Hacktoberfest на GitHub.</text></g><g systemLanguage="zh-CN"><text x="16" y="57.30" font-size="12.181000000000001" fill="var(--text)">用于 Hacktoberfest 统计分析的 CI/CD 静态 UI。 Hacktoberfest GitHub PR 独家提供。</text></g><g systemLanguage="zh-TW"><text x="16" y="57.30" font-size="12.181000000000001" fill="var(--text)">用於 Hacktoberfest 統計分析的 CI/CD 靜態 UI。 Hacktoberfest GitHub PR 獨家提供。</text></g><g systemLanguage="ja"><text x="16" y="57.30" font-size="12.181000000000001" fill="var(--text)">Hacktoberfest 統計分析用の CI/CD 静的 UI。 Hacktoberfest GitHub PR 限定。</text></g><g systemLanguage="ko"><text x="16" y="57.30" font-size="12.181000000000001" fill="var(--text)">Hacktoberfest 통계 분석을 위한 CI/CD 정적 UI입니다. Hacktoberfest GitHub PR에</text><text x="16" y="73.74" font-size="12.181000000000001" fill="var(--text)">독점 제공됩니다.</text></g><g systemLanguage="ar"><text x="16" y="57.30" font-size="12.181000000000001" fill="var(--text)">واجهة مستخدم ثابتة CI/CD للتحليل الإحصائي Hacktoberfest. حصريًا</text><text x="16" y="73.74" font-size="12.181000000000001" fill="var(--text)">لـ Hacktoberfest GitHub PRs.</text></g><g systemLanguage="hi"><text x="16" y="57.30" font-size="12.181000000000001" fill="var(--text)">हैकटेबरफेस्ट सांख्यिकीय विश्लेषण के लिए सीआई/सीडी स्थिर यूआई।</text><text x="16" y="73.74" font-size="12.181000000000001" fill="var(--text)">Hacktoberfest GitHub PRs के लिए विशेष।</text></g><g systemLanguage="it"><text x="16" y="57.30" font-size="12.181000000000001" fill="var(--text)">Interfaccia utente statica CI/CD per l&apos;analisi statistica</text><text x="16" y="73.74" font-size="12.181000000000001" fill="var(--text)">dell&apos;Hacktoberfest. In esclusiva per i PR GitHub di Hacktoberfest.</text></g><g systemLanguage="tr"><text x="16" y="57.30" font-size="12.181000000000001" fill="var(--text)">Hacktoberfest istatistiksel analizi için CI/CD statik kullanıcı</text><text x="16" y="73.74" font-size="12.181000000000001" fill="var(--text)">arayüzü. Hacktoberfest GitHub PR&apos;lara özel.</text></g><g systemLanguage="nl"><text x="16" y="57.30" font-size="12.181000000000001" fill="var(--text)">CI/CD statische gebruikersinterface voor statistische analyse van</text><text x="16" y="73.74" font-size="12.181000000000001" fill="var(--text)">Hacktoberfest. Exclusief voor Hacktoberfest GitHub PR&apos;s.</text></g><g systemLanguage="sv"><text x="16" y="57.30" font-size="12.181000000000001" fill="var(--text)">CI/CD statisk UI för Hacktoberfest statistisk analys. Exklusivt för</text><text x="16" y="73.74" font-size="12.181000000000001" fill="var(--text)">Hacktoberfest GitHub PRs.</text></g><g systemLanguage="pl"><text x="16" y="57.30" font-size="12.181000000000001" fill="var(--text)">Statyczny interfejs CI/CD do analizy statystycznej Hacktoberfest.</text><text x="16" y="73.74" font-size="12.181000000000001" fill="var(--text)">Wyłącznie dla PR Hacktoberfest GitHub.</text></g><g systemLanguage="id"><text x="16" y="57.30" font-size="12.181000000000001" fill="var(--text)">UI statis CI/CD untuk analisis statistik Hacktoberfest. Eksklusif</text><text x="16" y="73.74" font-size="12.181000000000001" fill="var(--text)">untuk PR GitHub Hacktoberfest.</text></g><g systemLanguage="th"><text x="16" y="57.30" font-size="12.181000000000001" fill="var(--text)">UI แบบคงที่ของ CI/CD สำหรับการวิเคราะห์ทางสถิติของ</text><text x="16" y="73.74" font-size="12.181000000000001" fill="var(--text)">Hacktoberfest สิทธิพิเศษสำหรับ Hacktoberfest GitHub PRs</text></g><g systemLanguage="vi"><text x="16" y="57.30" font-size="12.181000000000001" fill="var(--text)">Giao diện người dùng tĩnh CI/CD để phân tích thống kê</text><text x="16" y="73.74" font-size="12.181000000000001" fill="var(--text)">Hacktoberfest. Dành riêng cho PR Hacktoberfest GitHub.</text></g><g systemLanguage="uk"><text x="16" y="57.30" font-size="12.181000000000001" fill="var(--text)">Статичний інтерфейс користувача CI/CD для статистичного аналізу</text><text x="16" y="73.74" font-size="12.181000000000001" fill="var(--text)">Hacktoberfest. Ексклюзивно для PR-агентів Hacktoberfest GitHub.</text></g><g><text x="16" y="57.30" font-size="12.181000000000001" fill="var(--text)">CI/CD static UI for Hacktoberfest statistical analysis. Exclusive to</text><text x="16" y="73.74" font-size="12.181000000000001" fill="var(--text)">Hacktoberfest GitHub PRs.</text></g></switch>
          </g>
          <rect 
            x="0.5" 
            y="0.5" 
            width="411" 
            height="133" 
            rx="6" 
            ry="6" 
            fill="none" 
            stroke="var(--border)"
          />
        </svg>
        