<?xml version="1.0" encoding="UTF-8"?>
        <svg 
          width="412" 
          height="134" 
          viewBox="0 0 412 134" 
          xmlns="http://www.w3.org/2000/svg" 
          role="img" 
          aria-label="Hacktoberfest-Stats/hacktoberfest-stats-tap"
        >
          <title>Hacktoberfest-Stats/hacktoberfest-stats-tap</title>
          <style>:root {
          --canvas: #ffffff; --border: #d1d9e0; 
          --text: #59636e; --danger: #9a6700; --link: #0969da;
        }@media (prefers-color-scheme: dark) { :root {
          --canvas: #212830; --border: #3d444d; 
          --text: #9198a1; --danger: #c69026; --link: #478be6;
        } }text { 
              font-family: -apple-system, 
              BlinkMacSystemFont, 
              "Segoe UI", 
              "Noto Sans", 
              Helvetica, 
              Arial, 
              sans-serif; 
            } 
          </style>
          <defs><clipPath id="clip"><rect 
            x="0" 
            y="0" 
            width="412" 
            height="134" 
            rx="6" 
            ry="6"
          /></clipPath></defs>
          <g clip-path="url(#clip)">
            <rect 
              x="0" 
              y="0" 
              width="412" 
              height="134" 
              fill="var(--canvas)" 
              stroke="var(--border)"
            />
            <g transform="translate(16.00,17.97) scale(0.9412)"><path d="M2 2.5A2.5 2.5 0 0 1 4.5 0h8.75a.75.75 0 0 1 .75.75v12.5a.75.75 0 0 1-.75.75h-2.5a.75.75 0 0 1 0-1.5h1.75v-2h-8a1 1 0 0 0-.714 1.7.75.75 0 1 1-1.072 1.05A2.495 2.495 0 0 1 2 11.5Zm10.5-1h-8a1 1 0 0 0-1 1v6.708A2.486 2.486 0 0 1 4.5 9h8ZM5 12.25a.25.25 0 0 1 .25-.25h3.5a.25.25 0 0 1 .25.25v3.25a.25.25 0 0 1-.4.2l-1.45-1.087a.249.249 0 0 0-.3 0L5.4 15.7a.25.25 0 0 1-.4-.2Z" fill="var(--text)" stroke="none" stroke-width="0" fill-rule="evenodd"/></g>
        <a href="https://github.com/Hacktoberfest-Stats/hacktoberfest-stats-tap" target="_blank"><text x="33" y="29.118000000000002" font-size="13.118" fill="var(--link)"><tspan font-weight="500">Hacktoberfest-Stats/</tspan><tspan font-weight="700">hacktoberfest-stats-tap</tspan></text></a><g transform="translate(335.50,16.32)"><rect width="40" height="16" rx="8" ry="8" fill="var(--canvas)" stroke="var(--border)"/><text x="8.0" y="12" font-size="9.182599999999999" fill="var(--text)" textLength="24" lengthAdjust="spacingAndGlyphs">Public</text></g><text x="16" y="57.30" font-size="12.181000000000001" fill="var(--text)">Orchestrate ETL, data processing pipeline for Hacktoberfest PR</text><text x="16" y="73.74" font-size="12.181000000000001" fill="var(--text)">statistical analysis. Exclusive to October and GitHub PRs.</text>
          </g>
          <rect 
            x="0.5" 
            y="0.5" 
            width="411" 
            height="133" 
            rx="6" 
            ry="6" 
            fill="none" 
            stroke="var(--border)"
          />
        </svg>
        