<?xml version="1.0" encoding="UTF-8"?>
        <svg 
          width="412" 
          height="134" 
          viewBox="0 0 412 134" 
          xmlns="http://www.w3.org/2000/svg" 
          role="img" 
          aria-label="Hacktoberfest-Stats/hacktoberfest-stats-tap"
        >
          <title>Hacktoberfest-Stats/hacktoberfest-stats-tap</title>
          <style>:root {
          --canvas: #ffffff; --border: #d1d9e0; 
          --text: #59636e; --danger: #9a6700; --link: #0969da;
        }@media (prefers-color-scheme: dark) { :root {
          --canvas: #212830; --border: #3d444d; 
          --text: #9198a1; --danger: #c69026; --link: #478be6;
        } }text { 
              font-family: -apple-system, 
              BlinkMacSystemFont, 
              "Segoe UI", 
              "Noto Sans", 
              Helvetica, 
              Arial, 
              sans-serif; 
            } 
          </style>
          <defs><clipPath id="clip"><rect 
            x="0" 
            y="0" 
            width="412" 
            height="134" 
            rx="6" 
            ry="6"
          /></clipPath></defs>
          <g clip-path="url(#clip)">
            <rect 
              x="0" 
              y="0" 
              width="412" 
              height="134" 
              fill="var(--canvas)" 
              stroke="var(--border)"
            />
            <g transform="translate(16.00,17.97) scale(0.9412)"><path d="M2 2.5A2.5 2.5 0 0 1 4.5 0h8.75a.75.75 0 0 1 .75.75v12.5a.75.75 0 0 1-.75.75h-2.5a.75.75 0 0 1 0-1.5h1.75v-2h-8a1 1 0 0 0-.714 1.7.75.75 0 1 1-1.072 1.05A2.495 2.495 0 0 1 2 11.5Zm10.5-1h-8a1 1 0 0 0-1 1v6.708A2.486 2.486 0 0 1 4.5 9h8ZM5 12.25a.25.25 0 0 1 .25-.25h3.5a.25.25 0 0 1 .25.25v3.25a.25.25 0 0 1-.4.2l-1.45-1.087a.249.249 0 0 0-.3 0L5.4 15.7a.25.25 0 0 1-.4-.2Z" fill="var(--text)" stroke="none" stroke-width="0" fill-rule="evenodd"/></g>
        <a href="https://github.com/Hacktoberfest-Stats/hacktoberfest-stats-tap" target="_blank"><text x="33" y="29.118000000000002" font-size="13.118" fill="var(--link)"><tspan font-weight="500">Hacktoberfest-Stats/</tspan><tspan font-weight="700">hacktoberfest-stats-tap</tspan></text></a><switch><g systemLanguage="ro"><g transform="translate(335.50,16.32)"><rect width="40" height="16" rx="8" ry="8" fill="var(--canvas)" stroke="var(--border)"/><text x="8.0" y="12" font-size="9.182599999999999" fill="var(--text)" textLength="24" lengthAdjust="spacingAndGlyphs">Public</text></g></g><g systemLanguage="en"><g transform="translate(335.50,16.32)"><rect width="40" height="16" rx="8" ry="8" fill="var(--canvas)" stroke="var(--border)"/><text x="8.0" y="12" font-size="9.182599999999999" fill="var(--text)" textLength="24" lengthAdjust="spacingAndGlyphs">Public</text></g></g><g systemLanguage="es"><g transform="translate(335.50,16.32)"><rect width="40" height="16" rx="8" ry="8" fill="var(--canvas)" stroke="var(--border)"/><text x="8.0" y="12" font-size="9.182599999999999" fill="var(--text)" textLength="24" lengthAdjust="spacingAndGlyphs">Público</text></g></g><g systemLanguage="fr"><g transform="translate(335.50,16.32)"><rect width="40" height="16" rx="8" ry="8" fill="var(--canvas)" stroke="var(--border)"/><text x="8.0" y="12" font-size="9.182599999999999" fill="var(--text)" textLength="24" lengthAdjust="spacingAndGlyphs">Publique</text></g></g><g systemLanguage="de"><g transform="translate(335.50,16.32)"><rect width="40" height="16" rx="8" ry="8" fill="var(--canvas)" stroke="var(--border)"/><text x="8.0" y="12" font-size="9.182599999999999" fill="var(--text)" textLength="24" lengthAdjust="spacingAndGlyphs">Öffentlich</text></g></g><g systemLanguage="pt"><g transform="translate(335.50,16.32)"><rect width="40" height="16" rx="8" ry="8" fill="var(--canvas)" stroke="var(--border)"/><text x="8.0" y="12" font-size="9.182599999999999" fill="var(--text)" textLength="24" lengthAdjust="spacingAndGlyphs">Público</text></g></g><g systemLanguage="ru"><g transform="translate(335.50,16.32)"><rect width="40" height="16" rx="8" ry="8" fill="var(--canvas)" stroke="var(--border)"/><text x="8.0" y="12" font-size="9.182599999999999" fill="var(--text)" textLength="24" lengthAdjust="spacingAndGlyphs">Общественный</text></g></g><g systemLanguage="zh-CN"><g transform="translate(335.50,16.32)"><rect width="40" height="16" rx="8" ry="8" fill="var(--canvas)" stroke="var(--border)"/><text x="8.0" y="12" font-size="9.182599999999999" fill="var(--text)" textLength="24" lengthAdjust="spacingAndGlyphs">民众</text></g></g><g systemLanguage="zh-TW"><g transform="translate(335.50,16.32)"><rect width="40" height="16" rx="8" ry="8" fill="var(--canvas)" stroke="var(--border)"/><text x="8.0" y="12" font-size="9.182599999999999" fill="var(--text)" textLength="24" lengthAdjust="spacingAndGlyphs">民眾</text></g></g><g systemLanguage="ja"><g transform="translate(335.50,16.32)"><rect width="40" height="16" rx="8" ry="8" fill="var(--canvas)" stroke="var(--border)"/><text x="8.0" y="12" font-size="9.182599999999999" fill="var(--text)" textLength="24" lengthAdjust="spacingAndGlyphs">公共</text></g></g><g systemLanguage="ko"><g transform="translate(335.50,16.32)"><rect width="40" height="16" rx="8" ry="8" fill="var(--canvas)" stroke="var(--border)"/><text x="8.0" y="12" font-size="9.182599999999999" fill="var(--text)" textLength="24" lengthAdjust="spacingAndGlyphs">공공의</text></g></g><g systemLanguage="ar"><g transform="translate(335.50,16.32)"><rect width="40" height="16" rx="8" ry="8" fill="var(--canvas)" stroke="var(--border)"/><text x="8.0" y="12" font-size="9.182599999999999" fill="var(--text)" textLength="24" lengthAdjust="spacingAndGlyphs">عام</text></g></g><g systemLanguage="hi"><g transform="translate(335.50,16.32)"><rect width="40" height="16" rx="8" ry="8" fill="var(--canvas)" stroke="var(--border)"/><text x="8.0" y="12" font-size="9.182599999999999" fill="var(--text)" textLength="24" lengthAdjust="spacingAndGlyphs">जनता</text></g></g><g systemLanguage="it"><g transform="translate(335.50,16.32)"><rect width="40" height="16" rx="8" ry="8" fill="var(--canvas)" stroke="var(--border)"/><text x="8.0" y="12" font-size="9.182599999999999" fill="var(--text)" textLength="24" lengthAdjust="spacingAndGlyphs">Pubblico</text></g></g><g systemLanguage="tr"><g transform="translate(335.50,16.32)"><rect width="40" height="16" rx="8" ry="8" fill="var(--canvas)" stroke="var(--border)"/><text x="8.0" y="12" font-size="9.182599999999999" fill="var(--text)" textLength="24" lengthAdjust="spacingAndGlyphs">Halk</text></g></g><g systemLanguage="nl"><g transform="translate(335.50,16.32)"><rect width="40" height="16" rx="8" ry="8" fill="var(--canvas)" stroke="var(--border)"/><text x="8.0" y="12" font-size="9.182599999999999" fill="var(--text)" textLength="24" lengthAdjust="spacingAndGlyphs">Openbaar</text></g></g><g systemLanguage="sv"><g transform="translate(335.50,16.32)"><rect width="40" height="16" rx="8" ry="8" fill="var(--canvas)" stroke="var(--border)"/><text x="8.0" y="12" font-size="9.182599999999999" fill="var(--text)" textLength="24" lengthAdjust="spacingAndGlyphs">Offentlig</text></g></g><g systemLanguage="pl"><g transform="translate(335.50,16.32)"><rect width="40" height="16" rx="8" ry="8" fill="var(--canvas)" stroke="var(--border)"/><text x="8.0" y="12" font-size="9.182599999999999" fill="var(--text)" textLength="24" lengthAdjust="spacingAndGlyphs">Publiczny</text></g></g><g systemLanguage="id"><g transform="translate(335.50,16.32)"><rect width="40" height="16" rx="8" ry="8" fill="var(--canvas)" stroke="var(--border)"/><text x="8.0" y="12" font-size="9.182599999999999" fill="var(--text)" textLength="24" lengthAdjust="spacingAndGlyphs">Publik</text></g></g><g systemLanguage="th"><g transform="translate(335.50,16.32)"><rect width="40" height="16" rx="8" ry="8" fill="var(--canvas)" stroke="var(--border)"/><text x="8.0" y="12" font-size="9.182599999999999" fill="var(--text)" textLength="24" lengthAdjust="spacingAndGlyphs">สาธารณะ</text></g></g><g systemLanguage="vi"><g transform="translate(335.50,16.32)"><rect width="40" height="16" rx="8" ry="8" fill="var(--canvas)" stroke="var(--border)"/><text x="8.0" y="12" font-size="9.182599999999999" fill="var(--text)" textLength="24" lengthAdjust="spacingAndGlyphs">Công cộng</text></g></g><g systemLanguage="uk"><g transform="translate(335.50,16.32)"><rect width="40" height="16" rx="8" ry="8" fill="var(--canvas)" stroke="var(--border)"/><text x="8.0" y="12" font-size="9.182599999999999" fill="var(--text)" textLength="24" lengthAdjust="spacingAndGlyphs">Громадський</text></g></g><g><g transform="translate(335.50,16.32)"><rect width="40" height="16" rx="8" ry="8" fill="var(--canvas)" stroke="var(--border)"/><text x="8.0" y="12" font-size="9.182599999999999" fill="var(--text)" textLength="24" lengthAdjust="spacingAndGlyphs">Public</text></g></g></switch><switch><g systemLanguage="en"><text x="16" y="57.30" font-size="12.181000000000001" fill="var(--text)">Orchestrate ETL, data processing pipeline for Hacktoberfest PR</text><text x="16" y="73.74" font-size="12.181000000000001" fill="var(--text)">statistical analysis. Exclusive to October and GitHub PRs.</text></g><g systemLanguage="es"><text x="16" y="57.30" font-size="12.181000000000001" fill="var(--text)">Orquestar ETL, canal de procesamiento de datos para el análisis</text><text x="16" y="73.74" font-size="12.181000000000001" fill="var(--text)">estadístico de relaciones públicas del Hacktoberfest. Exclusivo para</text><text x="16" y="90.19" font-size="12.181000000000001" fill="var(--text)">octubre y relaciones públicas de GitHub.</text></g><g systemLanguage="fr"><text x="16" y="57.30" font-size="12.181000000000001" fill="var(--text)">Orchestrer ETL, pipeline de traitement de données pour l&apos;analyse</text><text x="16" y="73.74" font-size="12.181000000000001" fill="var(--text)">statistique des relations publiques du Hacktoberfest. Exclusif aux</text><text x="16" y="90.19" font-size="12.181000000000001" fill="var(--text)">PR d&apos;octobre et de GitHub.</text></g><g systemLanguage="de"><text x="16" y="57.30" font-size="12.181000000000001" fill="var(--text)">Orchestrieren Sie ETL, Datenverarbeitungspipeline für die</text><text x="16" y="73.74" font-size="12.181000000000001" fill="var(--text)">statistische Analyse von Hacktoberfest PR. Exklusiv für Oktober-</text><text x="16" y="90.19" font-size="12.181000000000001" fill="var(--text)">und GitHub-PRs.</text></g><g systemLanguage="pt"><text x="16" y="57.30" font-size="12.181000000000001" fill="var(--text)">Orquestre ETL, pipeline de processamento de dados para análise</text><text x="16" y="73.74" font-size="12.181000000000001" fill="var(--text)">estatística de PR do Hacktoberfest. Exclusivo para PRs de outubro e</text><text x="16" y="90.19" font-size="12.181000000000001" fill="var(--text)">GitHub.</text></g><g systemLanguage="ru"><text x="16" y="57.30" font-size="12.181000000000001" fill="var(--text)">Организовать ETL, конвейер обработки данных для статистического</text><text x="16" y="73.74" font-size="12.181000000000001" fill="var(--text)">PR-анализа Hacktoberfest. Эксклюзивно для октября и</text><text x="16" y="90.19" font-size="12.181000000000001" fill="var(--text)">PR-сообщений на GitHub.</text></g><g systemLanguage="zh-CN"><text x="16" y="57.30" font-size="12.181000000000001" fill="var(--text)">编排 ETL，用于 Hacktoberfest PR 统计分析的数据处理管道。 10 月和 GitHub PR 专享。</text></g><g systemLanguage="zh-TW"><text x="16" y="57.30" font-size="12.181000000000001" fill="var(--text)">編排 ETL，用於 Hacktoberfest PR 統計分析的數據處理管道。 10 月和 GitHub PR 專享。</text></g><g systemLanguage="ja"><text x="16" y="57.30" font-size="12.181000000000001" fill="var(--text)">Orchestrate ETL, data processing pipeline for Hacktoberfest PR</text><text x="16" y="73.74" font-size="12.181000000000001" fill="var(--text)">statistical analysis. October および GitHub PR 限定。</text></g><g systemLanguage="ko"><text x="16" y="57.30" font-size="12.181000000000001" fill="var(--text)">Hacktoberfest PR 통계 분석을 위한 데이터 처리 파이프라인인 ETL을 조율합니다. 10월 및 GitHub</text><text x="16" y="73.74" font-size="12.181000000000001" fill="var(--text)">PR에만 적용됩니다.</text></g><g systemLanguage="ar"><text x="16" y="57.30" font-size="12.181000000000001" fill="var(--text)">تنسيق ETL، خط أنابيب معالجة البيانات للتحليل الإحصائي للعلاقات</text><text x="16" y="73.74" font-size="12.181000000000001" fill="var(--text)">العامة في Hacktoberfest. حصريًا لشهر أكتوبر وGitHub PRs.</text></g><g systemLanguage="hi"><text x="16" y="57.30" font-size="12.181000000000001" fill="var(--text)">ऑर्केस्ट्रा ईटीएल, हैकटेबरफेस्ट पीआर सांख्यिकीय विश्लेषण के लिए</text><text x="16" y="73.74" font-size="12.181000000000001" fill="var(--text)">डेटा प्रोसेसिंग पाइपलाइन। अक्टूबर और GitHub PRs के लिए विशेष।</text></g><g systemLanguage="it"><text x="16" y="57.30" font-size="12.181000000000001" fill="var(--text)">Orchestra ETL, pipeline di elaborazione dati per l&apos;analisi statistica</text><text x="16" y="73.74" font-size="12.181000000000001" fill="var(--text)">delle PR di Hacktoberfest. In esclusiva per October e GitHub PR.</text></g><g systemLanguage="tr"><text x="16" y="57.30" font-size="12.181000000000001" fill="var(--text)">Hacktoberfest PR istatistiksel analizi için veri işleme hattı olan</text><text x="16" y="73.74" font-size="12.181000000000001" fill="var(--text)">ETL&apos;yi düzenleyin. Ekim ayına ve GitHub Halkla İlişkiler&apos;e özel.</text></g><g systemLanguage="nl"><text x="16" y="57.30" font-size="12.181000000000001" fill="var(--text)">Orchestrate ETL, gegevensverwerkingspijplijn voor statistische</text><text x="16" y="73.74" font-size="12.181000000000001" fill="var(--text)">analyse van Hacktoberfest PR. Exclusief voor oktober en GitHub PR&apos;s.</text></g><g systemLanguage="sv"><text x="16" y="57.30" font-size="12.181000000000001" fill="var(--text)">Orchestrate ETL, databehandlingspipeline för Hacktoberfest PR</text><text x="16" y="73.74" font-size="12.181000000000001" fill="var(--text)">statistisk analys. Exklusivt för oktober och GitHub PRs.</text></g><g systemLanguage="pl"><text x="16" y="57.30" font-size="12.181000000000001" fill="var(--text)">Organizuj ETL, potok przetwarzania danych na potrzeby analizy</text><text x="16" y="73.74" font-size="12.181000000000001" fill="var(--text)">statystycznej Hacktoberfest PR. Wyłącznie w październiku i w</text><text x="16" y="90.19" font-size="12.181000000000001" fill="var(--text)">ramach PR GitHub.</text></g><g systemLanguage="id"><text x="16" y="57.30" font-size="12.181000000000001" fill="var(--text)">Atur ETL, saluran pemrosesan data untuk analisis statistik PR</text><text x="16" y="73.74" font-size="12.181000000000001" fill="var(--text)">Hacktoberfest. Eksklusif untuk PR Oktober dan GitHub.</text></g><g systemLanguage="th"><text x="16" y="57.30" font-size="12.181000000000001" fill="var(--text)">จัดทำ ETL</text><text x="16" y="73.74" font-size="12.181000000000001" fill="var(--text)">ซึ่งเป็นไปป์ไลน์การประมวลผลข้อมูลสำหรับการวิเคราะห์ทางสถิติของ</text><text x="16" y="90.19" font-size="12.181000000000001" fill="var(--text)">Hacktoberfest PR พิเศษเฉพาะเดือนตุลาคมและ GitHub PR</text></g><g systemLanguage="vi"><text x="16" y="57.30" font-size="12.181000000000001" fill="var(--text)">Điều phối ETL, quy trình xử lý dữ liệu để phân tích thống kê PR của</text><text x="16" y="73.74" font-size="12.181000000000001" fill="var(--text)">Hacktoberfest. Dành riêng cho PR tháng 10 và GitHub.</text></g><g systemLanguage="uk"><text x="16" y="57.30" font-size="12.181000000000001" fill="var(--text)">Оркеструйте ETL, конвеєр обробки даних для статистичного аналізу</text><text x="16" y="73.74" font-size="12.181000000000001" fill="var(--text)">PR Hacktoberfest. Ексклюзивно для реклами в жовтні та GitHub.</text></g><g><text x="16" y="57.30" font-size="12.181000000000001" fill="var(--text)">Orchestrate ETL, data processing pipeline for Hacktoberfest PR</text><text x="16" y="73.74" font-size="12.181000000000001" fill="var(--text)">statistical analysis. Exclusive to October and GitHub PRs.</text></g></switch>
          </g>
          <rect 
            x="0.5" 
            y="0.5" 
            width="411" 
            height="133" 
            rx="6" 
            ry="6" 
            fill="none" 
            stroke="var(--border)"
          />
        </svg>
        