<?xml version="1.0" encoding="UTF-8"?>
        <svg 
          width="400" 
          height="138" 
          viewBox="0 0 400 138" 
          xmlns="http://www.w3.org/2000/svg" 
          role="img" 
          aria-label="Hacktoberfest-Stats/hacktoberfest-stats"
        >
          <title>Hacktoberfest-Stats/hacktoberfest-stats</title>
          <style>:root {
          --canvas: #ffffff; --border: #d1d9e0; 
          --text: #59636e; --danger: #9a6700; --link: #0969da;
        }@media (prefers-color-scheme: dark) { :root {
          --canvas: #212830; --border: #3d444d; 
          --text: #9198a1; --danger: #c69026; --link: #478be6;
        } }text { 
              font-family: -apple-system, 
              BlinkMacSystemFont, 
              "Segoe UI", 
              "Noto Sans", 
              Helvetica, 
              Arial, 
              sans-serif; 
            } 
          </style>
          <defs><clipPath id="clip"><rect 
            x="0" 
            y="0" 
            width="400" 
            height="138" 
            rx="6" 
            ry="6"
          /></clipPath></defs>
          <g clip-path="url(#clip)">
            <rect 
              x="0" 
              y="0" 
              width="400" 
              height="138" 
              fill="var(--canvas)" 
              stroke="var(--border)"
            />
            <g transform="translate(16.00,19.44) scale(0.8750)"><path d="M2 2.5A2.5 2.5 0 0 1 4.5 0h8.75a.75.75 0 0 1 .75.75v12.5a.75.75 0 0 1-.75.75h-2.5a.75.75 0 0 1 0-1.5h1.75v-2h-8a1 1 0 0 0-.714 1.7.75.75 0 1 1-1.072 1.05A2.495 2.495 0 0 1 2 11.5Zm10.5-1h-8a1 1 0 0 0-1 1v6.708A2.486 2.486 0 0 1 4.5 9h8ZM5 12.25a.25.25 0 0 1 .25-.25h3.5a.25.25 0 0 1 .25.25v3.25a.25.25 0 0 1-.4.2l-1.45-1.087a.249.249 0 0 0-.3 0L5.4 15.7a.25.25 0 0 1-.4-.2Z" fill="var(--text)" stroke="none" stroke-width="0" fill-rule="evenodd"/></g>
        <a href="https://github.com/Hacktoberfest-Stats/hacktoberfest-stats" target="_blank"><text x="34" y="30.0" font-size="14.0" fill="var(--link)"><tspan font-weight="500">Hacktoberfest-Stats/</tspan><tspan font-weight="600">hacktoberfest-stats</tspan></text></a><g transform="translate(327.74,17.10)"><rect width="38" height="16" rx="8" ry="8" fill="var(--canvas)" stroke="var(--border)"/><text x="6" y="12" font-size="10.0" fill="var(--text)" textLength="26" lengthAdjust="spacingAndGlyphs">Public</text></g><text x="16" y="58.00" font-size="12.0" fill="var(--text)">CI/CD static UI for Hacktoberfest stats. Exclusive to</text><text x="16" y="74.20" font-size="12.0" fill="var(--text)">Hacktoberfest GitHub PRs. Not to be confused for Hacktoberfest</text><text x="16" y="90.40" font-size="12.0" fill="var(--text)">contributions - none will be accepted!</text>
          </g>
          <rect 
            x="0.5" 
            y="0.5" 
            width="399" 
            height="137" 
            rx="6" 
            ry="6" 
            fill="none" 
            stroke="var(--border)"
          />
        </svg>
        